<svg xmlns="http://www.w3.org/2000/svg" xmlns:xlink="http://www.w3.org/1999/xlink" width="322" height="182" viewBox="0 0 322 182">
  <defs>
    <linearGradient id="linear-gradient" x1="0.905" y1="0.103" x2="0.162" y2="0.781" gradientUnits="objectBoundingBox">
      <stop offset="0" stop-color="#8140a9"/>
      <stop offset="1" stop-color="#cc79ff"/>
    </linearGradient>
    <clipPath id="clip-Prancheta_1">
      <rect width="322" height="182"/>
    </clipPath>
  </defs>
  <g id="Prancheta_1" data-name="Prancheta – 1" clip-path="url(#clip-Prancheta_1)">
    <path id="Caminho_2229" data-name="Caminho 2229" d="M412.784,1.461h0a7.956,7.956,0,0,0-11.253,0L347.174,55.818a7.956,7.956,0,0,1-11.253,0h0a7.956,7.956,0,0,1,0-11.253l26.747-26.747a7.958,7.958,0,0,0,0-11.253h0a7.956,7.956,0,0,0-11.253,0L339.43,18.55a7.956,7.956,0,0,1-11.253,0h0a7.958,7.958,0,0,1,0-11.253l23.7-23.7a7.958,7.958,0,0,0,0-11.253h0a7.956,7.956,0,0,0-11.253,0L224.047,88.923a7.958,7.958,0,0,0,0,11.253h0a7.956,7.956,0,0,0,11.253,0L250.52,84.955a7.958,7.958,0,0,1,11.253,0h0a7.956,7.956,0,0,1,0,11.253l-50.855,50.855a7.956,7.956,0,0,0,0,11.253h0a7.956,7.956,0,0,0,11.253,0l39.376-39.376a7.956,7.956,0,0,1,11.253,0h0a7.956,7.956,0,0,1,0,11.253l-9.625,9.625a7.958,7.958,0,0,0,0,11.253h0a7.958,7.958,0,0,0,11.253,0L412.784,12.714A7.958,7.958,0,0,0,412.784,1.461Z" transform="translate(-53.792 -103.975)" fill="url(#linear-gradient)"/>
    <path id="Caminho_2231" data-name="Caminho 2231" d="M275.788,239.3h0a7.956,7.956,0,0,1,0-11.253l17.109-17.11a7.958,7.958,0,0,1,11.253,0h0a7.956,7.956,0,0,1,0,11.253L287.041,239.3A7.958,7.958,0,0,1,275.788,239.3Z" transform="translate(-9.32 -168.796)" fill="url(#linear-gradient)"/>
    <path id="Caminho_2246" data-name="Caminho 2246" d="M255.138,267.313h0a7.958,7.958,0,0,1,0-11.253l.045-.045a7.956,7.956,0,0,1,11.253,0h0a7.956,7.956,0,0,1,0,11.253l-.045.045A7.958,7.958,0,0,1,255.138,267.313Z" transform="translate(-238.104 -100.367)" fill="url(#linear-gradient)"/>
    <path id="Caminho_2280" data-name="Caminho 2280" d="M113.269,218.689h0a7.956,7.956,0,0,1,0-11.253l41.5-41.5a7.956,7.956,0,0,1,11.253,0h0a7.956,7.956,0,0,1,0,11.253l-41.5,41.5A7.958,7.958,0,0,1,113.269,218.689Z" transform="translate(5.604 -198.25)" fill="url(#linear-gradient)"/>
    <path id="Caminho_2283" data-name="Caminho 2283" d="M500.651,389.412h0a7.958,7.958,0,0,1,0-11.253l41.5-41.5a7.958,7.958,0,0,1,11.253,0h0a7.956,7.956,0,0,1,0,11.253l-41.5,41.5A7.956,7.956,0,0,1,500.651,389.412Z" transform="translate(-201.011 -235.644)" fill="url(#linear-gradient)"/>
    <path id="Caminho_2243" data-name="Caminho 2243" d="M466.7,142.968h0a7.958,7.958,0,0,1,0-11.253L500.274,98.14a7.956,7.956,0,0,1,11.253,0h0a7.956,7.956,0,0,1,0,11.253l-33.575,33.575A7.956,7.956,0,0,1,466.7,142.968Z" transform="translate(-203.79 -106.842)" fill="url(#linear-gradient)"/>
    <path id="Caminho_2230" data-name="Caminho 2230" d="M767.784,238.847h0a7.958,7.958,0,0,0-11.253,0l-67.1,67.1a7.958,7.958,0,0,1-11.253,0h0a7.958,7.958,0,0,1,0-11.253L717.669,255.2a7.958,7.958,0,0,0,0-11.253h0a7.958,7.958,0,0,0-11.253,0l-14.762,14.762a7.956,7.956,0,0,1-11.253,0h0a7.958,7.958,0,0,1,0-11.253l26.473-26.472a7.958,7.958,0,0,0,0-11.253h0a7.958,7.958,0,0,0-11.253,0L579.047,326.31a7.958,7.958,0,0,0,0,11.253h0a7.958,7.958,0,0,0,11.253,0l15.221-15.221a7.956,7.956,0,0,1,11.253,0h0a7.956,7.956,0,0,1,0,11.253l-50.855,50.855a7.956,7.956,0,0,0,0,11.253h0a7.956,7.956,0,0,0,11.253,0l39.376-39.376a7.956,7.956,0,0,1,11.253,0h0a7.956,7.956,0,0,1,0,11.253l-9.625,9.625a7.958,7.958,0,0,0,0,11.253h0a7.956,7.956,0,0,0,11.253,0L767.784,250.1A7.958,7.958,0,0,0,767.784,238.847Z" transform="translate(-277.658 -304.436)" fill="url(#linear-gradient)"/>
    <path id="Caminho_2227" data-name="Caminho 2227" d="M226.857,448.891h0a7.958,7.958,0,0,0-11.253,0l-58.4,58.4a7.956,7.956,0,0,1-11.253,0h0a7.956,7.956,0,0,1,0-11.253l32.515-32.515a7.958,7.958,0,0,0,0-11.253h0a7.956,7.956,0,0,0-11.253,0L37.093,582.392a7.956,7.956,0,0,0,0,11.253h0a7.958,7.958,0,0,0,11.253,0l54.7-54.7a7.958,7.958,0,0,1,11.253,0h0a7.957,7.957,0,0,1,0,11.253l-8.134,8.134a7.958,7.958,0,0,0,0,11.253h0a7.958,7.958,0,0,0,11.253,0L226.857,460.144A7.958,7.958,0,0,0,226.857,448.891Z" transform="translate(-117.465 -290.43)" fill="url(#linear-gradient)"/>
    <path id="Caminho_2248" data-name="Caminho 2248" d="M504.684,455.063h0a7.956,7.956,0,0,1,0-11.253l30.039-30.039a7.956,7.956,0,0,1,11.253,0h0a7.956,7.956,0,0,1,0,11.253l-30.039,30.039A7.956,7.956,0,0,1,504.684,455.063Z" transform="translate(-465.225 -301.857)" fill="url(#linear-gradient)"/>
    <g id="Grupo_854" data-name="Grupo 854" transform="translate(12879 -7591)">
      <path id="Caminho_2168" data-name="Caminho 2168" d="M712.983,452.93a1.08,1.08,0,1,1,0-1.527A1.08,1.08,0,0,1,712.983,452.93Z" transform="translate(-13577.076 7247.208)" fill="url(#linear-gradient)"/>
      <circle id="Elipse_356" data-name="Elipse 356" cx="1.08" cy="1.08" r="1.08" transform="translate(-12860.953 7703.277)" fill="url(#linear-gradient)"/>
      <circle id="Elipse_357" data-name="Elipse 357" cx="1.08" cy="1.08" r="1.08" transform="translate(-12855.971 7708.261)" fill="url(#linear-gradient)"/>
      <circle id="Elipse_358" data-name="Elipse 358" cx="1.08" cy="1.08" r="1.08" transform="translate(-12850.987 7713.244)" fill="url(#linear-gradient)"/>
      <path id="Caminho_2170" data-name="Caminho 2170" d="M712.983,467.189a1.08,1.08,0,1,1,0-1.528A1.08,1.08,0,0,1,712.983,467.189Z" transform="translate(-13577.076 7242.916)" fill="url(#linear-gradient)"/>
      <circle id="Elipse_360" data-name="Elipse 360" cx="1.08" cy="1.08" r="1.08" transform="translate(-12860.954 7713.244)" fill="url(#linear-gradient)"/>
      <circle id="Elipse_361" data-name="Elipse 361" cx="1.08" cy="1.08" r="1.08" transform="translate(-12855.971 7718.227)" fill="url(#linear-gradient)"/>
      <path id="Caminho_2172" data-name="Caminho 2172" d="M712.983,481.447a1.08,1.08,0,1,1,0-1.527A1.079,1.079,0,0,1,712.983,481.447Z" transform="translate(-13577.075 7238.624)" fill="url(#linear-gradient)"/>
      <circle id="Elipse_364" data-name="Elipse 364" cx="1.08" cy="1.08" r="1.08" transform="translate(-12860.953 7723.21)" fill="url(#linear-gradient)"/>
      <path id="Caminho_2174" data-name="Caminho 2174" d="M712.983,495.706a1.08,1.08,0,1,1,0-1.527A1.08,1.08,0,0,1,712.983,495.706Z" transform="translate(-13577.075 7234.332)" fill="url(#linear-gradient)"/>
    </g>
  </g>
</svg>
