<svg xmlns="http://www.w3.org/2000/svg" xmlns:xlink="http://www.w3.org/1999/xlink" width="322" height="182" viewBox="0 0 322 182">
  <defs>
    <clipPath id="clip-path">
      <rect id="Retângulo_265" data-name="Retângulo 265" width="524" height="349" fill="none"/>
    </clipPath>
    <linearGradient id="linear-gradient" x1="0.905" y1="0.103" x2="0.162" y2="0.781" gradientUnits="objectBoundingBox">
      <stop offset="0" stop-color="#8140a9"/>
      <stop offset="1" stop-color="#cc79ff"/>
    </linearGradient>
    <clipPath id="clip-Prancheta_1">
      <rect width="322" height="182"/>
    </clipPath>
  </defs>
  <g id="Prancheta_1" data-name="Prancheta – 1" clip-path="url(#clip-Prancheta_1)">
    <g id="Grupo_917" data-name="Grupo 917" transform="translate(-31 -86)">
      <g id="Grupo_916" data-name="Grupo 916" clip-path="url(#clip-path)">
        <g id="Grupo_915" data-name="Grupo 915" transform="translate(-126.567 -103.415)">
          <g id="Grupo_864" data-name="Grupo 864" transform="translate(578.781 413.727)">
            <g id="Grupo_855" data-name="Grupo 855" transform="translate(39.865)">
              <circle id="Elipse_355" data-name="Elipse 355" cx="1.08" cy="1.08" r="1.08" fill="url(#linear-gradient)"/>
              <path id="Caminho_2168" data-name="Caminho 2168" d="M712.983,452.93a1.08,1.08,0,1,1,0-1.527A1.08,1.08,0,0,1,712.983,452.93Z" transform="translate(-706.156 -446.103)" fill="url(#linear-gradient)"/>
              <circle id="Elipse_356" data-name="Elipse 356" cx="1.08" cy="1.08" r="1.08" transform="translate(9.966 9.966)" fill="url(#linear-gradient)"/>
              <circle id="Elipse_357" data-name="Elipse 357" cx="1.08" cy="1.08" r="1.08" transform="translate(14.95 14.949)" fill="url(#linear-gradient)"/>
              <circle id="Elipse_358" data-name="Elipse 358" cx="1.08" cy="1.08" r="1.08" transform="translate(19.933 19.933)" fill="url(#linear-gradient)"/>
            </g>
            <g id="Grupo_856" data-name="Grupo 856" transform="translate(34.882 4.983)">
              <path id="Caminho_2169" data-name="Caminho 2169" d="M698.725,452.93a1.08,1.08,0,1,1,0-1.527A1.081,1.081,0,0,1,698.725,452.93Z" transform="translate(-696.881 -451.086)" fill="url(#linear-gradient)"/>
              <circle id="Elipse_359" data-name="Elipse 359" cx="1.08" cy="1.08" r="1.08" transform="translate(4.983 4.983)" fill="url(#linear-gradient)"/>
              <path id="Caminho_2170" data-name="Caminho 2170" d="M712.983,467.189a1.08,1.08,0,1,1,0-1.528A1.08,1.08,0,0,1,712.983,467.189Z" transform="translate(-701.173 -455.378)" fill="url(#linear-gradient)"/>
              <circle id="Elipse_360" data-name="Elipse 360" cx="1.08" cy="1.08" r="1.08" transform="translate(14.95 14.949)" fill="url(#linear-gradient)"/>
              <circle id="Elipse_361" data-name="Elipse 361" cx="1.08" cy="1.08" r="1.08" transform="translate(19.933 19.933)" fill="url(#linear-gradient)"/>
            </g>
            <g id="Grupo_857" data-name="Grupo 857" transform="translate(29.899 9.966)">
              <circle id="Elipse_362" data-name="Elipse 362" cx="1.08" cy="1.08" r="1.08" fill="url(#linear-gradient)"/>
              <path id="Caminho_2171" data-name="Caminho 2171" d="M698.725,467.189a1.08,1.08,0,1,1,0-1.528A1.081,1.081,0,0,1,698.725,467.189Z" transform="translate(-691.898 -460.362)" fill="url(#linear-gradient)"/>
              <circle id="Elipse_363" data-name="Elipse 363" cx="1.08" cy="1.08" r="1.08" transform="translate(9.966 9.966)" fill="url(#linear-gradient)"/>
              <path id="Caminho_2172" data-name="Caminho 2172" d="M712.983,481.447a1.08,1.08,0,1,1,0-1.527A1.079,1.079,0,0,1,712.983,481.447Z" transform="translate(-696.19 -464.654)" fill="url(#linear-gradient)"/>
              <circle id="Elipse_364" data-name="Elipse 364" cx="1.08" cy="1.08" r="1.08" transform="translate(19.933 19.933)" fill="url(#linear-gradient)"/>
            </g>
            <g id="Grupo_858" data-name="Grupo 858" transform="translate(24.916 14.949)">
              <circle id="Elipse_365" data-name="Elipse 365" cx="1.08" cy="1.08" r="1.08" fill="url(#linear-gradient)"/>
              <circle id="Elipse_366" data-name="Elipse 366" cx="1.08" cy="1.08" r="1.08" transform="translate(4.983 4.983)" fill="url(#linear-gradient)"/>
              <path id="Caminho_2173" data-name="Caminho 2173" d="M698.725,481.447a1.08,1.08,0,1,1,0-1.527A1.08,1.08,0,0,1,698.725,481.447Z" transform="translate(-686.914 -469.637)" fill="url(#linear-gradient)"/>
              <circle id="Elipse_367" data-name="Elipse 367" cx="1.08" cy="1.08" r="1.08" transform="translate(14.95 14.95)" fill="url(#linear-gradient)"/>
              <path id="Caminho_2174" data-name="Caminho 2174" d="M712.983,495.706a1.08,1.08,0,1,1,0-1.527A1.08,1.08,0,0,1,712.983,495.706Z" transform="translate(-691.206 -473.929)" fill="url(#linear-gradient)"/>
            </g>
            <g id="Grupo_859" data-name="Grupo 859" transform="translate(19.933 19.933)">
              <circle id="Elipse_368" data-name="Elipse 368" cx="1.08" cy="1.08" r="1.08" fill="url(#linear-gradient)"/>
              <circle id="Elipse_369" data-name="Elipse 369" cx="1.08" cy="1.08" r="1.08" transform="translate(4.983 4.983)" fill="url(#linear-gradient)"/>
              <circle id="Elipse_370" data-name="Elipse 370" cx="1.08" cy="1.08" r="1.08" transform="translate(9.966 9.966)" fill="url(#linear-gradient)"/>
              <path id="Caminho_2175" data-name="Caminho 2175" d="M698.725,495.706a1.08,1.08,0,1,1,0-1.527A1.081,1.081,0,0,1,698.725,495.706Z" transform="translate(-681.931 -478.912)" fill="url(#linear-gradient)"/>
              <circle id="Elipse_371" data-name="Elipse 371" cx="1.08" cy="1.08" r="1.08" transform="translate(19.933 19.933)" fill="url(#linear-gradient)"/>
            </g>
            <g id="Grupo_860" data-name="Grupo 860" transform="translate(14.95 24.916)">
              <circle id="Elipse_372" data-name="Elipse 372" cx="1.08" cy="1.08" r="1.08" fill="url(#linear-gradient)"/>
              <circle id="Elipse_373" data-name="Elipse 373" cx="1.08" cy="1.08" r="1.08" transform="translate(4.983 4.983)" fill="url(#linear-gradient)"/>
              <circle id="Elipse_374" data-name="Elipse 374" cx="1.08" cy="1.08" r="1.08" transform="translate(9.966 9.966)" fill="url(#linear-gradient)"/>
              <circle id="Elipse_375" data-name="Elipse 375" cx="1.08" cy="1.08" r="1.08" transform="translate(14.95 14.95)" fill="url(#linear-gradient)"/>
              <path id="Caminho_2176" data-name="Caminho 2176" d="M698.725,509.965a1.08,1.08,0,1,1,0-1.528A1.081,1.081,0,0,1,698.725,509.965Z" transform="translate(-676.948 -488.188)" fill="url(#linear-gradient)"/>
            </g>
            <g id="Grupo_861" data-name="Grupo 861" transform="translate(9.966 29.899)">
              <circle id="Elipse_376" data-name="Elipse 376" cx="1.08" cy="1.08" r="1.08" fill="url(#linear-gradient)"/>
              <circle id="Elipse_377" data-name="Elipse 377" cx="1.08" cy="1.08" r="1.08" transform="translate(4.983 4.983)" fill="url(#linear-gradient)"/>
              <circle id="Elipse_378" data-name="Elipse 378" cx="1.08" cy="1.08" r="1.08" transform="translate(9.966 9.966)" fill="url(#linear-gradient)"/>
              <circle id="Elipse_379" data-name="Elipse 379" cx="1.08" cy="1.08" r="1.08" transform="translate(14.95 14.95)" fill="url(#linear-gradient)"/>
              <circle id="Elipse_380" data-name="Elipse 380" cx="1.08" cy="1.08" r="1.08" transform="translate(19.933 19.933)" fill="url(#linear-gradient)"/>
            </g>
            <g id="Grupo_862" data-name="Grupo 862" transform="translate(4.983 34.882)">
              <circle id="Elipse_381" data-name="Elipse 381" cx="1.08" cy="1.08" r="1.08" fill="url(#linear-gradient)"/>
              <circle id="Elipse_382" data-name="Elipse 382" cx="1.08" cy="1.08" r="1.08" transform="translate(4.983 4.983)" fill="url(#linear-gradient)"/>
              <circle id="Elipse_383" data-name="Elipse 383" cx="1.08" cy="1.08" r="1.08" transform="translate(9.966 9.966)" fill="url(#linear-gradient)"/>
              <circle id="Elipse_384" data-name="Elipse 384" cx="1.08" cy="1.08" r="1.08" transform="translate(14.95 14.95)" fill="url(#linear-gradient)"/>
              <circle id="Elipse_385" data-name="Elipse 385" cx="1.08" cy="1.08" r="1.08" transform="translate(19.933 19.933)" fill="url(#linear-gradient)"/>
            </g>
            <g id="Grupo_863" data-name="Grupo 863" transform="translate(0 39.865)">
              <circle id="Elipse_386" data-name="Elipse 386" cx="1.08" cy="1.08" r="1.08" fill="url(#linear-gradient)"/>
              <circle id="Elipse_387" data-name="Elipse 387" cx="1.08" cy="1.08" r="1.08" transform="translate(4.983 4.983)" fill="url(#linear-gradient)"/>
              <circle id="Elipse_388" data-name="Elipse 388" cx="1.08" cy="1.08" r="1.08" transform="translate(9.966 9.966)" fill="url(#linear-gradient)"/>
              <circle id="Elipse_389" data-name="Elipse 389" cx="1.08" cy="1.08" r="1.08" transform="translate(14.95 14.95)" fill="url(#linear-gradient)"/>
              <circle id="Elipse_390" data-name="Elipse 390" cx="1.08" cy="1.08" r="1.08" transform="translate(19.933 19.933)" fill="url(#linear-gradient)"/>
            </g>
          </g>
          <g id="Grupo_874" data-name="Grupo 874" transform="translate(302.004 119.781)">
            <g id="Grupo_865" data-name="Grupo 865" transform="translate(39.865 0)">
              <circle id="Elipse_391" data-name="Elipse 391" cx="1.08" cy="1.08" r="1.08" fill="url(#linear-gradient)"/>
              <path id="Caminho_2177" data-name="Caminho 2177" d="M317,32.387a1.08,1.08,0,1,1,0-1.527A1.08,1.08,0,0,1,317,32.387Z" transform="translate(-310.176 -25.56)" fill="url(#linear-gradient)"/>
              <circle id="Elipse_392" data-name="Elipse 392" cx="1.08" cy="1.08" r="1.08" transform="translate(9.966 9.966)" fill="url(#linear-gradient)"/>
              <path id="Caminho_2178" data-name="Caminho 2178" d="M331.262,46.646a1.08,1.08,0,1,1,0-1.528A1.081,1.081,0,0,1,331.262,46.646Z" transform="translate(-314.468 -29.852)" fill="url(#linear-gradient)"/>
              <circle id="Elipse_393" data-name="Elipse 393" cx="1.08" cy="1.08" r="1.08" transform="translate(19.933 19.933)" fill="url(#linear-gradient)"/>
            </g>
            <g id="Grupo_866" data-name="Grupo 866" transform="translate(34.882 4.983)">
              <circle id="Elipse_394" data-name="Elipse 394" cx="1.08" cy="1.08" r="1.08" fill="url(#linear-gradient)"/>
              <circle id="Elipse_395" data-name="Elipse 395" cx="1.08" cy="1.08" r="1.08" transform="translate(4.983 4.983)" fill="url(#linear-gradient)"/>
              <path id="Caminho_2179" data-name="Caminho 2179" d="M317,46.646a1.08,1.08,0,1,1,0-1.528A1.08,1.08,0,0,1,317,46.646Z" transform="translate(-305.193 -34.835)" fill="url(#linear-gradient)"/>
              <circle id="Elipse_396" data-name="Elipse 396" cx="1.08" cy="1.08" r="1.08" transform="translate(14.95 14.95)" fill="url(#linear-gradient)"/>
              <path id="Caminho_2180" data-name="Caminho 2180" d="M331.262,60.9a1.08,1.08,0,1,1,0-1.528A1.081,1.081,0,0,1,331.262,60.9Z" transform="translate(-309.485 -39.128)" fill="url(#linear-gradient)"/>
            </g>
            <g id="Grupo_867" data-name="Grupo 867" transform="translate(29.899 9.966)">
              <circle id="Elipse_397" data-name="Elipse 397" cx="1.08" cy="1.08" r="1.08" fill="url(#linear-gradient)"/>
              <circle id="Elipse_398" data-name="Elipse 398" cx="1.08" cy="1.08" r="1.08" transform="translate(4.983 4.983)" fill="url(#linear-gradient)"/>
              <circle id="Elipse_399" data-name="Elipse 399" cx="1.08" cy="1.08" r="1.08" transform="translate(9.966 9.966)" fill="url(#linear-gradient)"/>
              <path id="Caminho_2181" data-name="Caminho 2181" d="M317,60.9a1.08,1.08,0,1,1,0-1.528A1.08,1.08,0,0,1,317,60.9Z" transform="translate(-300.21 -44.111)" fill="url(#linear-gradient)"/>
              <circle id="Elipse_400" data-name="Elipse 400" cx="1.08" cy="1.08" r="1.08" transform="translate(19.933 19.933)" fill="url(#linear-gradient)"/>
            </g>
            <g id="Grupo_868" data-name="Grupo 868" transform="translate(24.916 14.95)">
              <circle id="Elipse_401" data-name="Elipse 401" cx="1.08" cy="1.08" r="1.08" fill="url(#linear-gradient)"/>
              <circle id="Elipse_402" data-name="Elipse 402" cx="1.08" cy="1.08" r="1.08" transform="translate(4.983 4.983)" fill="url(#linear-gradient)"/>
              <circle id="Elipse_403" data-name="Elipse 403" cx="1.08" cy="1.08" r="1.08" transform="translate(9.966 9.966)" fill="url(#linear-gradient)"/>
              <circle id="Elipse_404" data-name="Elipse 404" cx="1.08" cy="1.08" r="1.08" transform="translate(14.95 14.95)" fill="url(#linear-gradient)"/>
              <path id="Caminho_2182" data-name="Caminho 2182" d="M317,75.163a1.08,1.08,0,1,1,0-1.527A1.079,1.079,0,0,1,317,75.163Z" transform="translate(-295.226 -53.386)" fill="url(#linear-gradient)"/>
            </g>
            <g id="Grupo_869" data-name="Grupo 869" transform="translate(19.933 19.933)">
              <circle id="Elipse_405" data-name="Elipse 405" cx="1.08" cy="1.08" r="1.08" fill="url(#linear-gradient)"/>
              <circle id="Elipse_406" data-name="Elipse 406" cx="1.08" cy="1.08" r="1.08" transform="translate(4.983 4.983)" fill="url(#linear-gradient)"/>
              <circle id="Elipse_407" data-name="Elipse 407" cx="1.08" cy="1.08" r="1.08" transform="translate(9.966 9.966)" fill="url(#linear-gradient)"/>
              <circle id="Elipse_408" data-name="Elipse 408" cx="1.08" cy="1.08" r="1.08" transform="translate(14.95 14.95)" fill="url(#linear-gradient)"/>
              <circle id="Elipse_409" data-name="Elipse 409" cx="1.08" cy="1.08" r="1.08" transform="translate(19.933 19.933)" fill="url(#linear-gradient)"/>
            </g>
            <g id="Grupo_870" data-name="Grupo 870" transform="translate(14.95 24.916)">
              <circle id="Elipse_410" data-name="Elipse 410" cx="1.08" cy="1.08" r="1.08" fill="url(#linear-gradient)"/>
              <circle id="Elipse_411" data-name="Elipse 411" cx="1.08" cy="1.08" r="1.08" transform="translate(4.983 4.983)" fill="url(#linear-gradient)"/>
              <circle id="Elipse_412" data-name="Elipse 412" cx="1.08" cy="1.08" r="1.08" transform="translate(9.966 9.966)" fill="url(#linear-gradient)"/>
              <circle id="Elipse_413" data-name="Elipse 413" cx="1.08" cy="1.08" r="1.08" transform="translate(14.95 14.95)" fill="url(#linear-gradient)"/>
              <circle id="Elipse_414" data-name="Elipse 414" cx="1.08" cy="1.08" r="1.08" transform="translate(19.933 19.933)" fill="url(#linear-gradient)"/>
            </g>
            <g id="Grupo_871" data-name="Grupo 871" transform="translate(9.966 29.899)">
              <circle id="Elipse_415" data-name="Elipse 415" cx="1.08" cy="1.08" r="1.08" fill="url(#linear-gradient)"/>
              <circle id="Elipse_416" data-name="Elipse 416" cx="1.08" cy="1.08" r="1.08" transform="translate(4.983 4.983)" fill="url(#linear-gradient)"/>
              <circle id="Elipse_417" data-name="Elipse 417" cx="1.08" cy="1.08" r="1.08" transform="translate(9.966 9.966)" fill="url(#linear-gradient)"/>
              <circle id="Elipse_418" data-name="Elipse 418" cx="1.08" cy="1.08" r="1.08" transform="translate(14.95 14.95)" fill="url(#linear-gradient)"/>
              <circle id="Elipse_419" data-name="Elipse 419" cx="1.08" cy="1.08" r="1.08" transform="translate(19.933 19.933)" fill="url(#linear-gradient)"/>
            </g>
            <g id="Grupo_872" data-name="Grupo 872" transform="translate(4.983 34.882)">
              <circle id="Elipse_420" data-name="Elipse 420" cx="1.08" cy="1.08" r="1.08" fill="url(#linear-gradient)"/>
              <circle id="Elipse_421" data-name="Elipse 421" cx="1.08" cy="1.08" r="1.08" transform="translate(4.983 4.983)" fill="url(#linear-gradient)"/>
              <circle id="Elipse_422" data-name="Elipse 422" cx="1.08" cy="1.08" r="1.08" transform="translate(9.966 9.966)" fill="url(#linear-gradient)"/>
              <circle id="Elipse_423" data-name="Elipse 423" cx="1.08" cy="1.08" r="1.08" transform="translate(14.95 14.95)" fill="url(#linear-gradient)"/>
              <circle id="Elipse_424" data-name="Elipse 424" cx="1.08" cy="1.08" r="1.08" transform="translate(19.933 19.933)" fill="url(#linear-gradient)"/>
            </g>
            <g id="Grupo_873" data-name="Grupo 873" transform="translate(0 39.865)">
              <circle id="Elipse_425" data-name="Elipse 425" cx="1.08" cy="1.08" r="1.08" fill="url(#linear-gradient)"/>
              <circle id="Elipse_426" data-name="Elipse 426" cx="1.08" cy="1.08" r="1.08" transform="translate(4.983 4.983)" fill="url(#linear-gradient)"/>
              <circle id="Elipse_427" data-name="Elipse 427" cx="1.08" cy="1.08" r="1.08" transform="translate(9.966 9.966)" fill="url(#linear-gradient)"/>
              <circle id="Elipse_428" data-name="Elipse 428" cx="1.08" cy="1.08" r="1.08" transform="translate(14.95 14.949)" fill="url(#linear-gradient)"/>
              <circle id="Elipse_429" data-name="Elipse 429" cx="1.08" cy="1.08" r="1.08" transform="translate(19.933 19.933)" fill="url(#linear-gradient)"/>
            </g>
          </g>
          <g id="Grupo_884" data-name="Grupo 884" transform="translate(302.48 348.698)">
            <g id="Grupo_875" data-name="Grupo 875" transform="translate(39.866)">
              <path id="Caminho_2183" data-name="Caminho 2183" d="M310.554,352.765a1.08,1.08,0,1,1,0-1.528A1.08,1.08,0,0,1,310.554,352.765Z" transform="translate(-308.711 -350.921)" fill="url(#linear-gradient)"/>
              <circle id="Elipse_430" data-name="Elipse 430" cx="1.08" cy="1.08" r="1.08" transform="translate(4.983 4.983)" fill="url(#linear-gradient)"/>
              <path id="Caminho_2184" data-name="Caminho 2184" d="M324.813,367.023a1.08,1.08,0,1,1,0-1.527A1.079,1.079,0,0,1,324.813,367.023Z" transform="translate(-313.003 -355.213)" fill="url(#linear-gradient)"/>
              <circle id="Elipse_431" data-name="Elipse 431" cx="1.08" cy="1.08" r="1.08" transform="translate(14.949 14.949)" fill="url(#linear-gradient)"/>
              <circle id="Elipse_432" data-name="Elipse 432" cx="1.08" cy="1.08" r="1.08" transform="translate(19.933 19.933)" fill="url(#linear-gradient)"/>
            </g>
            <g id="Grupo_876" data-name="Grupo 876" transform="translate(34.882 4.983)">
              <circle id="Elipse_433" data-name="Elipse 433" cx="1.08" cy="1.08" r="1.08" fill="url(#linear-gradient)"/>
              <path id="Caminho_2185" data-name="Caminho 2185" d="M310.554,367.023a1.08,1.08,0,1,1,0-1.527A1.079,1.079,0,0,1,310.554,367.023Z" transform="translate(-303.727 -360.196)" fill="url(#linear-gradient)"/>
              <circle id="Elipse_434" data-name="Elipse 434" cx="1.08" cy="1.08" r="1.08" transform="translate(9.966 9.966)" fill="url(#linear-gradient)"/>
              <circle id="Elipse_435" data-name="Elipse 435" cx="1.08" cy="1.08" r="1.08" transform="translate(14.95 14.95)" fill="url(#linear-gradient)"/>
              <circle id="Elipse_436" data-name="Elipse 436" cx="1.08" cy="1.08" r="1.08" transform="translate(19.933 19.933)" fill="url(#linear-gradient)"/>
            </g>
            <g id="Grupo_877" data-name="Grupo 877" transform="translate(29.899 9.966)">
              <path id="Caminho_2186" data-name="Caminho 2186" d="M296.3,367.023a1.08,1.08,0,1,1,0-1.527A1.08,1.08,0,0,1,296.3,367.023Z" transform="translate(-294.452 -365.179)" fill="url(#linear-gradient)"/>
              <circle id="Elipse_437" data-name="Elipse 437" cx="1.08" cy="1.08" r="1.08" transform="translate(4.983 4.983)" fill="url(#linear-gradient)"/>
              <path id="Caminho_2187" data-name="Caminho 2187" d="M310.554,381.282a1.08,1.08,0,1,1,0-1.527A1.079,1.079,0,0,1,310.554,381.282Z" transform="translate(-298.744 -369.471)" fill="url(#linear-gradient)"/>
              <circle id="Elipse_438" data-name="Elipse 438" cx="1.08" cy="1.08" r="1.08" transform="translate(14.95 14.95)" fill="url(#linear-gradient)"/>
              <circle id="Elipse_439" data-name="Elipse 439" cx="1.08" cy="1.08" r="1.08" transform="translate(19.933 19.933)" fill="url(#linear-gradient)"/>
            </g>
            <g id="Grupo_878" data-name="Grupo 878" transform="translate(24.916 14.949)">
              <circle id="Elipse_440" data-name="Elipse 440" cx="1.08" cy="1.08" r="1.08" fill="url(#linear-gradient)"/>
              <path id="Caminho_2188" data-name="Caminho 2188" d="M296.3,381.282a1.08,1.08,0,1,1,0-1.527A1.08,1.08,0,0,1,296.3,381.282Z" transform="translate(-289.469 -374.455)" fill="url(#linear-gradient)"/>
              <circle id="Elipse_441" data-name="Elipse 441" cx="1.08" cy="1.08" r="1.08" transform="translate(9.966 9.966)" fill="url(#linear-gradient)"/>
              <path id="Caminho_2189" data-name="Caminho 2189" d="M310.554,395.541a1.08,1.08,0,1,1,0-1.528A1.08,1.08,0,0,1,310.554,395.541Z" transform="translate(-293.761 -378.747)" fill="url(#linear-gradient)"/>
              <circle id="Elipse_442" data-name="Elipse 442" cx="1.08" cy="1.08" r="1.08" transform="translate(19.933 19.933)" fill="url(#linear-gradient)"/>
            </g>
            <g id="Grupo_879" data-name="Grupo 879" transform="translate(19.933 19.933)">
              <circle id="Elipse_443" data-name="Elipse 443" cx="1.08" cy="1.08" r="1.08" fill="url(#linear-gradient)"/>
              <circle id="Elipse_444" data-name="Elipse 444" cx="1.08" cy="1.08" r="1.08" transform="translate(4.983 4.983)" fill="url(#linear-gradient)"/>
              <path id="Caminho_2190" data-name="Caminho 2190" d="M296.3,395.541a1.08,1.08,0,1,1,0-1.528A1.081,1.081,0,0,1,296.3,395.541Z" transform="translate(-284.485 -383.73)" fill="url(#linear-gradient)"/>
              <circle id="Elipse_445" data-name="Elipse 445" cx="1.08" cy="1.08" r="1.08" transform="translate(14.95 14.95)" fill="url(#linear-gradient)"/>
              <path id="Caminho_2191" data-name="Caminho 2191" d="M310.554,409.8a1.08,1.08,0,1,1,0-1.527A1.079,1.079,0,0,1,310.554,409.8Z" transform="translate(-288.778 -388.023)" fill="url(#linear-gradient)"/>
            </g>
            <g id="Grupo_880" data-name="Grupo 880" transform="translate(14.95 24.916)">
              <circle id="Elipse_446" data-name="Elipse 446" cx="1.08" cy="1.08" r="1.08" fill="url(#linear-gradient)"/>
              <circle id="Elipse_447" data-name="Elipse 447" cx="1.08" cy="1.08" r="1.08" transform="translate(4.983 4.983)" fill="url(#linear-gradient)"/>
              <circle id="Elipse_448" data-name="Elipse 448" cx="1.08" cy="1.08" r="1.08" transform="translate(9.966 9.966)" fill="url(#linear-gradient)"/>
              <path id="Caminho_2192" data-name="Caminho 2192" d="M296.3,409.8a1.08,1.08,0,1,1,0-1.527A1.08,1.08,0,0,1,296.3,409.8Z" transform="translate(-279.502 -393.006)" fill="url(#linear-gradient)"/>
              <path id="Caminho_2193" data-name="Caminho 2193" d="M303.425,416.929a1.08,1.08,0,1,1,0-1.528A1.08,1.08,0,0,1,303.425,416.929Z" transform="translate(-281.648 -395.152)" fill="url(#linear-gradient)"/>
            </g>
            <g id="Grupo_881" data-name="Grupo 881" transform="translate(9.966 29.899)">
              <circle id="Elipse_449" data-name="Elipse 449" cx="1.08" cy="1.08" r="1.08" fill="url(#linear-gradient)"/>
              <circle id="Elipse_450" data-name="Elipse 450" cx="1.08" cy="1.08" r="1.08" transform="translate(4.983 4.983)" fill="url(#linear-gradient)"/>
              <circle id="Elipse_451" data-name="Elipse 451" cx="1.08" cy="1.08" r="1.08" transform="translate(9.966 9.966)" fill="url(#linear-gradient)"/>
              <path id="Caminho_2194" data-name="Caminho 2194" d="M289.166,416.929a1.08,1.08,0,1,1,0-1.528A1.08,1.08,0,0,1,289.166,416.929Z" transform="translate(-272.373 -400.135)" fill="url(#linear-gradient)"/>
              <path id="Caminho_2195" data-name="Caminho 2195" d="M296.3,424.058a1.08,1.08,0,1,1,0-1.527A1.08,1.08,0,0,1,296.3,424.058Z" transform="translate(-274.519 -402.281)" fill="url(#linear-gradient)"/>
            </g>
            <g id="Grupo_882" data-name="Grupo 882" transform="translate(4.983 34.882)">
              <circle id="Elipse_452" data-name="Elipse 452" cx="1.08" cy="1.08" r="1.08" fill="url(#linear-gradient)"/>
              <circle id="Elipse_453" data-name="Elipse 453" cx="1.08" cy="1.08" r="1.08" transform="translate(4.983 4.983)" fill="url(#linear-gradient)"/>
              <path id="Caminho_2196" data-name="Caminho 2196" d="M274.908,416.929a1.08,1.08,0,1,1,0-1.528A1.081,1.081,0,0,1,274.908,416.929Z" transform="translate(-263.097 -405.118)" fill="url(#linear-gradient)"/>
              <circle id="Elipse_454" data-name="Elipse 454" cx="1.08" cy="1.08" r="1.08" transform="translate(14.95 14.95)" fill="url(#linear-gradient)"/>
              <path id="Caminho_2197" data-name="Caminho 2197" d="M289.166,431.187a1.08,1.08,0,1,1,0-1.527A1.079,1.079,0,0,1,289.166,431.187Z" transform="translate(-267.389 -409.411)" fill="url(#linear-gradient)"/>
            </g>
            <g id="Grupo_883" data-name="Grupo 883" transform="translate(0 39.865)">
              <circle id="Elipse_455" data-name="Elipse 455" cx="1.08" cy="1.08" r="1.08" fill="url(#linear-gradient)"/>
              <path id="Caminho_2198" data-name="Caminho 2198" d="M260.649,416.929a1.08,1.08,0,1,1,0-1.528A1.08,1.08,0,0,1,260.649,416.929Z" transform="translate(-253.822 -410.102)" fill="url(#linear-gradient)"/>
              <circle id="Elipse_456" data-name="Elipse 456" cx="1.08" cy="1.08" r="1.08" transform="translate(9.966 9.966)" fill="url(#linear-gradient)"/>
              <path id="Caminho_2199" data-name="Caminho 2199" d="M274.908,431.187a1.08,1.08,0,1,1,0-1.527A1.08,1.08,0,0,1,274.908,431.187Z" transform="translate(-258.114 -414.394)" fill="url(#linear-gradient)"/>
              <circle id="Elipse_457" data-name="Elipse 457" cx="1.08" cy="1.08" r="1.08" transform="translate(19.933 19.933)" fill="url(#linear-gradient)"/>
            </g>
          </g>
          <g id="Grupo_894" data-name="Grupo 894" transform="translate(121.261 228.612)">
            <g id="Grupo_885" data-name="Grupo 885" transform="translate(51.352 0)">
              <circle id="Elipse_458" data-name="Elipse 458" cx="1.391" cy="1.391" r="1.391" fill="url(#linear-gradient)"/>
              <path id="Caminho_2200" data-name="Caminho 2200" d="M77.436,190.675a1.392,1.392,0,1,1,0-1.968A1.392,1.392,0,0,1,77.436,190.675Z" transform="translate(-68.642 -181.88)" fill="url(#linear-gradient)"/>
              <circle id="Elipse_459" data-name="Elipse 459" cx="1.391" cy="1.391" r="1.391" transform="translate(12.838 12.838)" fill="url(#linear-gradient)"/>
              <path id="Caminho_2201" data-name="Caminho 2201" d="M95.8,209.041a1.391,1.391,0,1,1,0-1.968A1.39,1.39,0,0,1,95.8,209.041Z" transform="translate(-74.171 -187.41)" fill="url(#linear-gradient)"/>
              <circle id="Elipse_460" data-name="Elipse 460" cx="1.391" cy="1.391" r="1.391" transform="translate(25.676 25.676)" fill="url(#linear-gradient)"/>
            </g>
            <g id="Grupo_886" data-name="Grupo 886" transform="translate(44.932 6.419)">
              <path id="Caminho_2202" data-name="Caminho 2202" d="M59.069,190.675a1.392,1.392,0,1,1,0-1.968A1.392,1.392,0,0,1,59.069,190.675Z" transform="translate(-56.694 -188.299)" fill="url(#linear-gradient)"/>
              <circle id="Elipse_461" data-name="Elipse 461" cx="1.391" cy="1.391" r="1.391" transform="translate(6.419 6.419)" fill="url(#linear-gradient)"/>
              <path id="Caminho_2203" data-name="Caminho 2203" d="M77.436,209.041a1.391,1.391,0,1,1,0-1.968A1.39,1.39,0,0,1,77.436,209.041Z" transform="translate(-62.223 -193.828)" fill="url(#linear-gradient)"/>
              <circle id="Elipse_462" data-name="Elipse 462" cx="1.391" cy="1.391" r="1.391" transform="translate(19.257 19.257)" fill="url(#linear-gradient)"/>
              <path id="Caminho_2204" data-name="Caminho 2204" d="M95.8,227.408a1.391,1.391,0,1,1,0-1.968A1.39,1.39,0,0,1,95.8,227.408Z" transform="translate(-67.752 -199.357)" fill="url(#linear-gradient)"/>
            </g>
            <g id="Grupo_887" data-name="Grupo 887" transform="translate(38.514 12.838)">
              <path id="Caminho_2205" data-name="Caminho 2205" d="M49.885,199.858a1.391,1.391,0,1,1,0-1.968A1.392,1.392,0,0,1,49.885,199.858Z" transform="translate(-47.51 -197.483)" fill="url(#linear-gradient)"/>
              <path id="Caminho_2206" data-name="Caminho 2206" d="M59.069,209.041a1.391,1.391,0,1,1,0-1.968A1.39,1.39,0,0,1,59.069,209.041Z" transform="translate(-50.275 -200.247)" fill="url(#linear-gradient)"/>
              <circle id="Elipse_463" data-name="Elipse 463" cx="1.391" cy="1.391" r="1.391" transform="translate(12.838 12.838)" fill="url(#linear-gradient)"/>
              <circle id="Elipse_464" data-name="Elipse 464" cx="1.391" cy="1.391" r="1.391" transform="translate(19.257 19.257)" fill="url(#linear-gradient)"/>
              <circle id="Elipse_465" data-name="Elipse 465" cx="1.391" cy="1.391" r="1.391" transform="translate(25.676 25.676)" fill="url(#linear-gradient)"/>
            </g>
            <g id="Grupo_888" data-name="Grupo 888" transform="translate(32.094 19.257)">
              <path id="Caminho_2207" data-name="Caminho 2207" d="M40.7,209.041a1.391,1.391,0,1,1,0-1.968A1.39,1.39,0,0,1,40.7,209.041Z" transform="translate(-38.326 -206.666)" fill="url(#linear-gradient)"/>
              <path id="Caminho_2208" data-name="Caminho 2208" d="M49.885,218.225a1.391,1.391,0,1,1,0-1.968A1.392,1.392,0,0,1,49.885,218.225Z" transform="translate(-41.091 -209.431)" fill="url(#linear-gradient)"/>
              <circle id="Elipse_466" data-name="Elipse 466" cx="1.391" cy="1.391" r="1.391" transform="translate(12.838 12.838)" fill="url(#linear-gradient)"/>
              <circle id="Elipse_467" data-name="Elipse 467" cx="1.391" cy="1.391" r="1.391" transform="translate(19.257 19.257)" fill="url(#linear-gradient)"/>
              <circle id="Elipse_468" data-name="Elipse 468" cx="1.391" cy="1.391" r="1.391" transform="translate(25.676 25.676)" fill="url(#linear-gradient)"/>
            </g>
            <g id="Grupo_889" data-name="Grupo 889" transform="translate(25.676 25.676)">
              <path id="Caminho_2209" data-name="Caminho 2209" d="M31.519,218.225a1.392,1.392,0,1,1,0-1.968A1.393,1.393,0,0,1,31.519,218.225Z" transform="translate(-29.143 -215.85)" fill="url(#linear-gradient)"/>
              <circle id="Elipse_469" data-name="Elipse 469" cx="1.391" cy="1.391" r="1.391" transform="translate(6.419 6.419)" fill="url(#linear-gradient)"/>
              <path id="Caminho_2210" data-name="Caminho 2210" d="M49.885,236.592a1.391,1.391,0,1,1,0-1.968A1.392,1.392,0,0,1,49.885,236.592Z" transform="translate(-34.672 -221.379)" fill="url(#linear-gradient)"/>
              <circle id="Elipse_470" data-name="Elipse 470" cx="1.391" cy="1.391" r="1.391" transform="translate(19.257 19.257)" fill="url(#linear-gradient)"/>
              <path id="Caminho_2211" data-name="Caminho 2211" d="M68.252,254.958a1.391,1.391,0,1,1,0-1.968A1.39,1.39,0,0,1,68.252,254.958Z" transform="translate(-40.201 -226.908)" fill="url(#linear-gradient)"/>
            </g>
            <g id="Grupo_890" data-name="Grupo 890" transform="translate(19.257 32.095)">
              <circle id="Elipse_471" data-name="Elipse 471" cx="1.391" cy="1.391" r="1.391" transform="translate(0)" fill="url(#linear-gradient)"/>
              <path id="Caminho_2212" data-name="Caminho 2212" d="M31.519,236.592a1.392,1.392,0,1,1,0-1.968A1.393,1.393,0,0,1,31.519,236.592Z" transform="translate(-22.724 -227.798)" fill="url(#linear-gradient)"/>
              <circle id="Elipse_472" data-name="Elipse 472" cx="1.391" cy="1.391" r="1.391" transform="translate(12.838 12.838)" fill="url(#linear-gradient)"/>
              <path id="Caminho_2213" data-name="Caminho 2213" d="M49.885,254.958a1.391,1.391,0,1,1,0-1.968A1.39,1.39,0,0,1,49.885,254.958Z" transform="translate(-28.254 -233.327)" fill="url(#linear-gradient)"/>
              <circle id="Elipse_473" data-name="Elipse 473" cx="1.391" cy="1.391" r="1.391" transform="translate(25.676 25.676)" fill="url(#linear-gradient)"/>
            </g>
            <g id="Grupo_891" data-name="Grupo 891" transform="translate(12.838 38.514)">
              <circle id="Elipse_474" data-name="Elipse 474" cx="1.391" cy="1.391" r="1.391" fill="url(#linear-gradient)"/>
              <circle id="Elipse_475" data-name="Elipse 475" cx="1.391" cy="1.391" r="1.391" transform="translate(6.419 6.419)" fill="url(#linear-gradient)"/>
              <path id="Caminho_2214" data-name="Caminho 2214" d="M31.519,254.958a1.392,1.392,0,1,1,0-1.968A1.391,1.391,0,0,1,31.519,254.958Z" transform="translate(-16.306 -239.746)" fill="url(#linear-gradient)"/>
              <circle id="Elipse_476" data-name="Elipse 476" cx="1.391" cy="1.391" r="1.391" transform="translate(19.257 19.257)" fill="url(#linear-gradient)"/>
              <path id="Caminho_2215" data-name="Caminho 2215" d="M49.885,273.325a1.391,1.391,0,1,1,0-1.968A1.39,1.39,0,0,1,49.885,273.325Z" transform="translate(-21.835 -245.275)" fill="url(#linear-gradient)"/>
            </g>
            <g id="Grupo_892" data-name="Grupo 892" transform="translate(6.419 44.932)">
              <circle id="Elipse_477" data-name="Elipse 477" cx="1.391" cy="1.391" r="1.391" transform="translate(0)" fill="url(#linear-gradient)"/>
              <path id="Caminho_2216" data-name="Caminho 2216" d="M13.152,254.958a1.391,1.391,0,1,1,0-1.968A1.39,1.39,0,0,1,13.152,254.958Z" transform="translate(-4.358 -246.164)" fill="url(#linear-gradient)"/>
              <circle id="Elipse_478" data-name="Elipse 478" cx="1.391" cy="1.391" r="1.391" transform="translate(12.838 12.838)" fill="url(#linear-gradient)"/>
              <path id="Caminho_2217" data-name="Caminho 2217" d="M31.519,273.325a1.392,1.392,0,1,1,0-1.968A1.391,1.391,0,0,1,31.519,273.325Z" transform="translate(-9.887 -251.694)" fill="url(#linear-gradient)"/>
              <circle id="Elipse_479" data-name="Elipse 479" cx="1.391" cy="1.391" r="1.391" transform="translate(25.676 25.676)" fill="url(#linear-gradient)"/>
            </g>
            <g id="Grupo_893" data-name="Grupo 893" transform="translate(0 51.351)">
              <path id="Caminho_2218" data-name="Caminho 2218" d="M-5.215,254.958a1.39,1.39,0,0,1-1.968,0,1.39,1.39,0,0,1,0-1.968,1.392,1.392,0,0,1,1.968,0A1.392,1.392,0,0,1-5.215,254.958Z" transform="translate(7.59 -252.583)" fill="url(#linear-gradient)"/>
              <circle id="Elipse_480" data-name="Elipse 480" cx="1.391" cy="1.391" r="1.391" transform="translate(6.419 6.419)" fill="url(#linear-gradient)"/>
              <path id="Caminho_2219" data-name="Caminho 2219" d="M13.152,273.325a1.391,1.391,0,1,1,0-1.968A1.39,1.39,0,0,1,13.152,273.325Z" transform="translate(2.061 -258.112)" fill="url(#linear-gradient)"/>
              <circle id="Elipse_481" data-name="Elipse 481" cx="1.391" cy="1.391" r="1.391" transform="translate(19.257 19.257)" fill="url(#linear-gradient)"/>
              <path id="Caminho_2220" data-name="Caminho 2220" d="M31.519,291.692a1.392,1.392,0,1,1,0-1.968A1.391,1.391,0,0,1,31.519,291.692Z" transform="translate(-3.468 -263.641)" fill="url(#linear-gradient)"/>
            </g>
          </g>
          <path id="Caminho_2221" data-name="Caminho 2221" d="M724.2,63.387h0a7.958,7.958,0,0,0-11.253,0l-3.376,3.376a7.957,7.957,0,0,1-11.253,0h0a7.958,7.958,0,0,1,0-11.253l16.532-16.531a7.956,7.956,0,0,0,0-11.253h0a7.956,7.956,0,0,0-11.253,0L672.059,59.261a7.958,7.958,0,0,1-11.253,0h0a7.956,7.956,0,0,1,0-11.253l35.755-35.755a7.958,7.958,0,0,0,0-11.253h0a7.956,7.956,0,0,0-11.253,0L661.5,24.809a7.956,7.956,0,0,1-11.253,0h0a7.956,7.956,0,0,1,0-11.253l24.914-24.914a7.956,7.956,0,0,0,0-11.253h0a7.956,7.956,0,0,0-11.253,0L533.933,107.366a7.955,7.955,0,0,0,0,11.252h0a7.958,7.958,0,0,0,11.253,0L572.59,91.213a7.957,7.957,0,0,1,11.253,0h0a7.958,7.958,0,0,1,0,11.253l-56.491,56.491a7.956,7.956,0,0,0,0,11.253h0a7.958,7.958,0,0,0,11.253,0l54.228-54.229a7.958,7.958,0,0,1,11.253,0h0a7.957,7.957,0,0,1,0,11.253l-12.958,12.958a7.956,7.956,0,0,0,0,11.253h0a7.956,7.956,0,0,0,11.253,0l37.09-37.09a7.956,7.956,0,0,1,11.253,0h0a7.956,7.956,0,0,1,0,11.253l-40.441,40.441a7.958,7.958,0,0,0,0,11.253h0a7.956,7.956,0,0,0,11.253,0L724.2,74.64A7.959,7.959,0,0,0,724.2,63.387Z" transform="translate(-31.482 110.924)" fill="url(#linear-gradient)"/>
          <path id="Caminho_2223" data-name="Caminho 2223" d="M446.573,360.335h0a7.958,7.958,0,0,0-11.253,0l-8.134,8.134a7.956,7.956,0,0,1-11.253,0h0a7.956,7.956,0,0,1,0-11.253l41.8-41.8a7.956,7.956,0,0,0,0-11.253h0a7.956,7.956,0,0,0-11.253,0L286.527,464.117a7.958,7.958,0,0,0,0,11.253h0a7.958,7.958,0,0,0,11.253,0L348.646,424.5a7.956,7.956,0,0,1,11.253,0h0a7.956,7.956,0,0,1,0,11.253l-8.134,8.134a7.958,7.958,0,0,0,0,11.253h0a7.956,7.956,0,0,0,11.253,0l83.555-83.555A7.958,7.958,0,0,0,446.573,360.335Z" transform="translate(41.014 12.554)" fill="url(#linear-gradient)"/>
          <path id="Caminho_2224" data-name="Caminho 2224" d="M236.068-58.556h0a7.958,7.958,0,0,0-11.253,0l-8.134,8.134a7.956,7.956,0,0,1-11.253,0h0a7.958,7.958,0,0,1,0-11.253l8.134-8.134a7.956,7.956,0,0,0,0-11.253h0a7.958,7.958,0,0,0-11.253,0L72.189,49.06a7.956,7.956,0,0,0,0,11.253h0a7.956,7.956,0,0,0,11.253,0l54.7-54.7a7.956,7.956,0,0,1,11.253,0h0a7.956,7.956,0,0,1,0,11.253L141.261,25a7.956,7.956,0,0,0,0,11.253h0a7.956,7.956,0,0,0,11.253,0L236.068-47.3A7.956,7.956,0,0,0,236.068-58.556Z" transform="translate(105.537 128.519)" opacity="0.5" fill="url(#linear-gradient)" style="mix-blend-mode: color-burn;isolation: isolate"/>
          <path id="Caminho_2225" data-name="Caminho 2225" d="M-14.866,108.2h0a7.956,7.956,0,0,0-11.253,0l-8.134,8.134a7.956,7.956,0,0,1-11.253,0h0a7.956,7.956,0,0,1,0-11.253L-4.344,63.921a7.958,7.958,0,0,0,0-11.253h0a7.956,7.956,0,0,0-11.253,0L-178.746,215.817a7.956,7.956,0,0,0,0,11.253h0a7.958,7.958,0,0,0,11.253,0l54.7-54.7a7.958,7.958,0,0,1,11.253,0h0a7.957,7.957,0,0,1,0,11.253l-8.134,8.134a7.958,7.958,0,0,0,0,11.253h0a7.958,7.958,0,0,0,11.253,0l83.555-83.555A7.958,7.958,0,0,0-14.866,108.2Z" transform="translate(181.077 88.262)" fill="url(#linear-gradient)"/>
          <path id="Caminho_2226" data-name="Caminho 2226" d="M377.584,202.017h0a7.956,7.956,0,0,0-11.253,0l-73.845,73.845a7.958,7.958,0,0,1-11.253,0h0a7.956,7.956,0,0,1,0-11.253l34.377-34.377a7.956,7.956,0,0,0,0-11.253h0a7.956,7.956,0,0,0-11.253,0L174.237,349.1a7.956,7.956,0,0,0,0,11.253h0a7.958,7.958,0,0,0,11.253,0l54.7-54.7a7.958,7.958,0,0,1,11.253,0h0a7.956,7.956,0,0,1,0,11.253l-8.134,8.134a7.957,7.957,0,0,0,0,11.253h0a7.958,7.958,0,0,0,11.253,0L377.584,213.27A7.958,7.958,0,0,0,377.584,202.017Z" transform="translate(74.817 43.303)" fill="url(#linear-gradient)"/>
          <path id="Caminho_2227" data-name="Caminho 2227" d="M226.857,448.891h0a7.958,7.958,0,0,0-11.253,0l-58.4,58.4a7.956,7.956,0,0,1-11.253,0h0a7.956,7.956,0,0,1,0-11.253l32.515-32.515a7.958,7.958,0,0,0,0-11.253h0a7.956,7.956,0,0,0-11.253,0L37.093,582.392a7.956,7.956,0,0,0,0,11.253h0a7.958,7.958,0,0,0,11.253,0l54.7-54.7a7.958,7.958,0,0,1,11.253,0h0a7.957,7.957,0,0,1,0,11.253l-8.134,8.134a7.958,7.958,0,0,0,0,11.253h0a7.958,7.958,0,0,0,11.253,0L226.857,460.144A7.958,7.958,0,0,0,226.857,448.891Z" transform="translate(116.102 -31.014)" fill="url(#linear-gradient)"/>
          <path id="Caminho_2228" data-name="Caminho 2228" d="M696.156-145.624h0a7.956,7.956,0,0,0-11.253,0l-58.4,58.4a7.956,7.956,0,0,1-11.253,0h0a7.956,7.956,0,0,1,0-11.253l32.515-32.515a7.956,7.956,0,0,0,0-11.253h0a7.956,7.956,0,0,0-11.253,0L506.391-12.123a7.958,7.958,0,0,0,0,11.253h0a7.958,7.958,0,0,0,11.253,0l54.7-54.7a7.958,7.958,0,0,1,11.253,0h0a7.958,7.958,0,0,1,0,11.253l-8.134,8.134a7.956,7.956,0,0,0,0,11.253h0a7.956,7.956,0,0,0,11.253,0L696.156-134.371A7.956,7.956,0,0,0,696.156-145.624Z" transform="translate(-25.172 147.954)" fill="url(#linear-gradient)"/>
          <path id="Caminho_2229" data-name="Caminho 2229" d="M412.784,1.461h0a7.956,7.956,0,0,0-11.253,0L347.174,55.818a7.956,7.956,0,0,1-11.253,0h0a7.956,7.956,0,0,1,0-11.253l26.747-26.747a7.958,7.958,0,0,0,0-11.253h0a7.956,7.956,0,0,0-11.253,0L339.43,18.55a7.956,7.956,0,0,1-11.253,0h0a7.958,7.958,0,0,1,0-11.253l23.7-23.7a7.958,7.958,0,0,0,0-11.253h0a7.956,7.956,0,0,0-11.253,0L224.047,88.923a7.958,7.958,0,0,0,0,11.253h0a7.956,7.956,0,0,0,11.253,0L250.52,84.955a7.958,7.958,0,0,1,11.253,0h0a7.956,7.956,0,0,1,0,11.253l-50.855,50.855a7.956,7.956,0,0,0,0,11.253h0a7.956,7.956,0,0,0,11.253,0l39.376-39.376a7.956,7.956,0,0,1,11.253,0h0a7.956,7.956,0,0,1,0,11.253l-9.625,9.625a7.958,7.958,0,0,0,0,11.253h0a7.958,7.958,0,0,0,11.253,0L412.784,12.714A7.958,7.958,0,0,0,412.784,1.461Z" transform="translate(63.775 112.441)" fill="url(#linear-gradient)"/>
          <path id="Caminho_2230" data-name="Caminho 2230" d="M767.784,238.847h0a7.958,7.958,0,0,0-11.253,0l-67.1,67.1a7.958,7.958,0,0,1-11.253,0h0a7.958,7.958,0,0,1,0-11.253L717.669,255.2a7.958,7.958,0,0,0,0-11.253h0a7.958,7.958,0,0,0-11.253,0l-14.762,14.762a7.956,7.956,0,0,1-11.253,0h0a7.958,7.958,0,0,1,0-11.253l26.473-26.472a7.958,7.958,0,0,0,0-11.253h0a7.958,7.958,0,0,0-11.253,0L579.047,326.31a7.958,7.958,0,0,0,0,11.253h0a7.958,7.958,0,0,0,11.253,0l15.221-15.221a7.956,7.956,0,0,1,11.253,0h0a7.956,7.956,0,0,1,0,11.253l-50.855,50.855a7.956,7.956,0,0,0,0,11.253h0a7.956,7.956,0,0,0,11.253,0l39.376-39.376a7.956,7.956,0,0,1,11.253,0h0a7.956,7.956,0,0,1,0,11.253l-9.625,9.625a7.958,7.958,0,0,0,0,11.253h0a7.956,7.956,0,0,0,11.253,0L767.784,250.1A7.958,7.958,0,0,0,767.784,238.847Z" transform="translate(-43.092 40.98)" fill="url(#linear-gradient)"/>
          <path id="Caminho_2231" data-name="Caminho 2231" d="M275.788,239.3h0a7.956,7.956,0,0,1,0-11.253l17.109-17.11a7.958,7.958,0,0,1,11.253,0h0a7.956,7.956,0,0,1,0,11.253L287.041,239.3A7.958,7.958,0,0,1,275.788,239.3Z" transform="translate(44.247 40.619)" fill="url(#linear-gradient)"/>
          <path id="Caminho_2233" data-name="Caminho 2233" d="M642.679,40.621a7.958,7.958,0,0,0,0,11.253h0a7.957,7.957,0,0,0,11.253,0Z" transform="translate(-66.199 91.187)" fill="url(#linear-gradient)"/>
          <path id="Caminho_2234" data-name="Caminho 2234" d="M589.28,309.141a7.958,7.958,0,0,0,0,11.253h0a7.956,7.956,0,0,0,11.253,0Z" transform="translate(-50.125 10.354)" fill="url(#linear-gradient)"/>
          <path id="Caminho_2235" data-name="Caminho 2235" d="M618.48,472.7a7.956,7.956,0,0,0,0,11.253h0a7.956,7.956,0,0,0,11.253,0Z" transform="translate(-58.914 -38.882)" fill="url(#linear-gradient)"/>
          <path id="Caminho_2236" data-name="Caminho 2236" d="M80.839,147.179a7.956,7.956,0,0,0,0,11.253h0a7.956,7.956,0,0,0,11.253,0Z" transform="translate(102.933 59.11)" fill="url(#linear-gradient)"/>
          <path id="Caminho_2237" data-name="Caminho 2237" d="M334.839,398.708a7.956,7.956,0,0,0,0,11.253h0a7.958,7.958,0,0,0,11.253,0Z" transform="translate(26.471 -16.609)" fill="url(#linear-gradient)"/>
          <path id="Caminho_2238" data-name="Caminho 2238" d="M186.9,126.895a7.957,7.957,0,0,0,0,11.253h0a7.958,7.958,0,0,0,11.253,0Z" transform="translate(71.006 65.216)" fill="url(#linear-gradient)"/>
          <path id="Caminho_2239" data-name="Caminho 2239" d="M76.116,499.979h0a7.956,7.956,0,0,1,0-11.253l33.575-33.575a7.956,7.956,0,0,1,11.253,0h0a7.958,7.958,0,0,1,0,11.253L87.369,499.979A7.958,7.958,0,0,1,76.116,499.979Z" transform="translate(104.355 -32.898)" fill="url(#linear-gradient)"/>
          <path id="Caminho_2240" data-name="Caminho 2240" d="M133.005,112.9h0a7.958,7.958,0,0,1,0-11.253L180.266,54.39a7.956,7.956,0,0,1,11.253,0h0a7.956,7.956,0,0,1,0,11.253L144.258,112.9A7.956,7.956,0,0,1,133.005,112.9Z" transform="translate(87.229 87.744)" fill="url(#linear-gradient)"/>
          <path id="Caminho_2241" data-name="Caminho 2241" d="M-22.294,59.649h0a7.956,7.956,0,0,1,0-11.253L11.28,14.821a7.958,7.958,0,0,1,11.253,0h0a7.957,7.957,0,0,1,0,11.253L-11.041,59.649A7.956,7.956,0,0,1-22.294,59.649Z" transform="translate(133.979 99.655)" fill="url(#linear-gradient)"/>
          <path id="Caminho_2242" data-name="Caminho 2242" d="M711.045,392.656h0a7.956,7.956,0,0,1,0-11.253l33.575-33.575a7.958,7.958,0,0,1,11.253,0h0a7.958,7.958,0,0,1,0,11.253L722.3,392.656A7.956,7.956,0,0,1,711.045,392.656Z" transform="translate(-86.78 -0.591)" fill="url(#linear-gradient)"/>
          <path id="Caminho_2243" data-name="Caminho 2243" d="M466.7,142.968h0a7.958,7.958,0,0,1,0-11.253L500.274,98.14a7.956,7.956,0,0,1,11.253,0h0a7.956,7.956,0,0,1,0,11.253l-33.575,33.575A7.956,7.956,0,0,1,466.7,142.968Z" transform="translate(-13.224 74.574)" fill="url(#linear-gradient)"/>
          <path id="Caminho_2244" data-name="Caminho 2244" d="M446.419,177.688h0a7.958,7.958,0,0,1,0-11.253l.045-.045a7.956,7.956,0,0,1,11.253,0h0a7.956,7.956,0,0,1,0,11.253l-.045.045A7.958,7.958,0,0,1,446.419,177.688Z" transform="translate(-7.119 54.028)" fill="url(#linear-gradient)"/>
          <path id="Caminho_2245" data-name="Caminho 2245" d="M483.109,489.543h0a7.958,7.958,0,0,1,0-11.253l.045-.045a7.958,7.958,0,0,1,11.253,0h0a7.956,7.956,0,0,1,0,11.253l-.045.045A7.956,7.956,0,0,1,483.109,489.543Z" transform="translate(-18.164 -39.85)" fill="url(#linear-gradient)"/>
          <path id="Caminho_2246" data-name="Caminho 2246" d="M255.138,267.313h0a7.958,7.958,0,0,1,0-11.253l.045-.045a7.956,7.956,0,0,1,11.253,0h0a7.956,7.956,0,0,1,0,11.253l-.045.045A7.958,7.958,0,0,1,255.138,267.313Z" transform="translate(50.463 27.048)" fill="url(#linear-gradient)"/>
          <path id="Caminho_2247" data-name="Caminho 2247" d="M94.414,255.3h0a7.956,7.956,0,0,1,0-11.253L94.46,244a7.958,7.958,0,0,1,11.253,0h0a7.956,7.956,0,0,1,0,11.253l-.045.045A7.956,7.956,0,0,1,94.414,255.3Z" transform="translate(98.846 30.666)" fill="url(#linear-gradient)"/>
          <path id="Caminho_2248" data-name="Caminho 2248" d="M504.684,455.063h0a7.956,7.956,0,0,1,0-11.253l30.039-30.039a7.956,7.956,0,0,1,11.253,0h0a7.956,7.956,0,0,1,0,11.253l-30.039,30.039A7.956,7.956,0,0,1,504.684,455.063Z" transform="translate(-24.658 -20.442)" fill="url(#linear-gradient)"/>
          <path id="Caminho_2249" data-name="Caminho 2249" d="M572.073,246.9h0a7.956,7.956,0,0,1,0-11.253l89.216-89.216a7.958,7.958,0,0,1,11.253,0h0a7.958,7.958,0,0,1,0,11.253L583.326,246.9A7.956,7.956,0,0,1,572.073,246.9Z" transform="translate(-44.944 60.036)" fill="url(#linear-gradient)"/>
          <g id="Grupo_895" data-name="Grupo 895" transform="translate(187.185 89.236)">
            <path id="Caminho_2250" data-name="Caminho 2250" d="M87.774,35.714a1.048,1.048,0,0,1-.741-1.789l53.9-53.9a1.048,1.048,0,0,1,1.483,0,1.048,1.048,0,0,1,0,1.483l-53.9,53.9A1.045,1.045,0,0,1,87.774,35.714Z" transform="translate(-86.726 20.287)" fill="url(#linear-gradient)"/>
          </g>
          <g id="Grupo_896" data-name="Grupo 896" transform="translate(220.076 406.739)">
            <path id="Caminho_2251" data-name="Caminho 2251" d="M134.831,489.96a1.048,1.048,0,0,1-.742-1.789l53.9-53.9a1.048,1.048,0,1,1,1.483,1.483l-53.9,53.9A1.044,1.044,0,0,1,134.831,489.96Z" transform="translate(-133.783 -433.959)" fill="url(#linear-gradient)"/>
          </g>
          <g id="Grupo_897" data-name="Grupo 897" transform="translate(435.679 75.414)">
            <path id="Caminho_2252" data-name="Caminho 2252" d="M443.29,15.941a1.048,1.048,0,0,1-.741-1.79l53.9-53.9a1.048,1.048,0,0,1,1.482,0,1.049,1.049,0,0,1,0,1.483l-53.9,53.9A1.045,1.045,0,0,1,443.29,15.941Z" transform="translate(-442.242 40.061)" fill="url(#linear-gradient)"/>
          </g>
          <g id="Grupo_898" data-name="Grupo 898" transform="translate(244.537 204.88)">
            <path id="Caminho_2253" data-name="Caminho 2253" d="M169.827,201.164a1.048,1.048,0,0,1-.742-1.789l53.9-53.9a1.048,1.048,0,0,1,1.482,1.482l-53.9,53.9A1.045,1.045,0,0,1,169.827,201.164Z" transform="translate(-168.778 -145.163)" fill="url(#linear-gradient)"/>
          </g>
          <g id="Grupo_899" data-name="Grupo 899" transform="translate(232.816 263.1)">
            <path id="Caminho_2254" data-name="Caminho 2254" d="M153.058,237.96a1.049,1.049,0,0,1-.742-1.79l7.4-7.4a1.048,1.048,0,0,1,1.483,1.483l-7.4,7.4A1.043,1.043,0,0,1,153.058,237.96Z" transform="translate(-152.01 -228.458)" fill="url(#linear-gradient)"/>
          </g>
          <g id="Grupo_902" data-name="Grupo 902" transform="translate(484.64 146.158)">
            <g id="Grupo_900" data-name="Grupo 900" transform="translate(15.389 0)">
              <path id="Caminho_2255" data-name="Caminho 2255" d="M535.355,117.152a1.048,1.048,0,0,1-.742-1.79l53.9-53.9A1.048,1.048,0,0,1,590,62.94l-53.9,53.905A1.048,1.048,0,0,1,535.355,117.152Z" transform="translate(-534.307 -61.151)" fill="url(#linear-gradient)"/>
            </g>
            <g id="Grupo_901" data-name="Grupo 901" transform="translate(0 57.763)">
              <path id="Caminho_2256" data-name="Caminho 2256" d="M513.338,157.419a1.049,1.049,0,0,1-.742-1.79L524.128,144.1a1.048,1.048,0,0,1,1.483,1.483l-11.532,11.532A1.046,1.046,0,0,1,513.338,157.419Z" transform="translate(-512.289 -143.79)" fill="url(#linear-gradient)"/>
            </g>
          </g>
          <g id="Grupo_903" data-name="Grupo 903" transform="translate(349.679 381.051)">
            <path id="Caminho_2257" data-name="Caminho 2257" d="M320.252,453.208a1.048,1.048,0,0,1-.741-1.789l53.9-53.9A1.049,1.049,0,0,1,374.9,399l-53.9,53.9A1.045,1.045,0,0,1,320.252,453.208Z" transform="translate(-319.203 -397.208)" fill="url(#linear-gradient)"/>
          </g>
          <g id="Grupo_904" data-name="Grupo 904" transform="translate(618.678 264.8)">
            <path id="Caminho_2258" data-name="Caminho 2258" d="M705.1,286.892a1.049,1.049,0,0,1-.742-1.79l53.9-53.9a1.048,1.048,0,1,1,1.483,1.483l-53.9,53.9A1.046,1.046,0,0,1,705.1,286.892Z" transform="translate(-704.056 -230.891)" fill="url(#linear-gradient)"/>
          </g>
          <g id="Grupo_914" data-name="Grupo 914" transform="translate(431.585 246.477)">
            <g id="Grupo_905" data-name="Grupo 905" transform="translate(51.351 0)">
              <circle id="Elipse_482" data-name="Elipse 482" cx="1.391" cy="1.391" r="1.391" fill="url(#linear-gradient)"/>
              <circle id="Elipse_483" data-name="Elipse 483" cx="1.391" cy="1.391" r="1.391" transform="translate(6.419 6.419)" fill="url(#linear-gradient)"/>
              <circle id="Elipse_484" data-name="Elipse 484" cx="1.391" cy="1.391" r="1.391" transform="translate(12.838 12.838)" fill="url(#linear-gradient)"/>
              <path id="Caminho_2259" data-name="Caminho 2259" d="M539.777,234.6a1.391,1.391,0,1,1,0-1.968A1.392,1.392,0,0,1,539.777,234.6Z" transform="translate(-518.145 -212.969)" fill="url(#linear-gradient)"/>
              <path id="Caminho_2260" data-name="Caminho 2260" d="M548.96,243.784a1.391,1.391,0,1,1,0-1.967A1.39,1.39,0,0,1,548.96,243.784Z" transform="translate(-520.91 -215.734)" fill="url(#linear-gradient)"/>
            </g>
            <g id="Grupo_906" data-name="Grupo 906" transform="translate(44.932 6.419)">
              <path id="Caminho_2261" data-name="Caminho 2261" d="M503.043,216.234a1.391,1.391,0,1,1,0-1.968A1.39,1.39,0,0,1,503.043,216.234Z" transform="translate(-500.668 -213.859)" fill="url(#linear-gradient)"/>
              <circle id="Elipse_485" data-name="Elipse 485" cx="1.391" cy="1.391" r="1.391" transform="translate(6.419 6.419)" fill="url(#linear-gradient)"/>
              <path id="Caminho_2262" data-name="Caminho 2262" d="M521.41,234.6a1.391,1.391,0,1,1,0-1.968A1.392,1.392,0,0,1,521.41,234.6Z" transform="translate(-506.197 -219.388)" fill="url(#linear-gradient)"/>
              <circle id="Elipse_486" data-name="Elipse 486" cx="1.391" cy="1.391" r="1.391" transform="translate(19.257 19.257)" fill="url(#linear-gradient)"/>
              <circle id="Elipse_487" data-name="Elipse 487" cx="1.391" cy="1.391" r="1.391" transform="translate(25.676 25.676)" fill="url(#linear-gradient)"/>
            </g>
            <g id="Grupo_907" data-name="Grupo 907" transform="translate(38.513 12.838)">
              <circle id="Elipse_488" data-name="Elipse 488" cx="1.391" cy="1.391" r="1.391" fill="url(#linear-gradient)"/>
              <path id="Caminho_2263" data-name="Caminho 2263" d="M503.043,234.6a1.391,1.391,0,1,1,0-1.968A1.392,1.392,0,0,1,503.043,234.6Z" transform="translate(-494.249 -225.807)" fill="url(#linear-gradient)"/>
              <circle id="Elipse_489" data-name="Elipse 489" cx="1.391" cy="1.391" r="1.391" transform="translate(12.838 12.838)" fill="url(#linear-gradient)"/>
              <circle id="Elipse_490" data-name="Elipse 490" cx="1.391" cy="1.391" r="1.391" transform="translate(19.257 19.257)" fill="url(#linear-gradient)"/>
              <circle id="Elipse_491" data-name="Elipse 491" cx="1.391" cy="1.391" r="1.391" transform="translate(25.676 25.676)" fill="url(#linear-gradient)"/>
            </g>
            <g id="Grupo_908" data-name="Grupo 908" transform="translate(32.094 19.257)">
              <path id="Caminho_2264" data-name="Caminho 2264" d="M484.676,234.6a1.391,1.391,0,1,1,0-1.968A1.392,1.392,0,0,1,484.676,234.6Z" transform="translate(-482.301 -232.226)" fill="url(#linear-gradient)"/>
              <circle id="Elipse_492" data-name="Elipse 492" cx="1.391" cy="1.391" r="1.391" transform="translate(6.419 6.419)" fill="url(#linear-gradient)"/>
              <path id="Caminho_2265" data-name="Caminho 2265" d="M503.043,252.968a1.391,1.391,0,1,1,0-1.968A1.392,1.392,0,0,1,503.043,252.968Z" transform="translate(-487.83 -237.755)" fill="url(#linear-gradient)"/>
              <circle id="Elipse_493" data-name="Elipse 493" cx="1.391" cy="1.391" r="1.391" transform="translate(19.257 19.257)" fill="url(#linear-gradient)"/>
              <path id="Caminho_2266" data-name="Caminho 2266" d="M521.41,271.335a1.391,1.391,0,1,1,0-1.968A1.392,1.392,0,0,1,521.41,271.335Z" transform="translate(-493.359 -243.284)" fill="url(#linear-gradient)"/>
            </g>
            <g id="Grupo_909" data-name="Grupo 909" transform="translate(25.676 25.676)">
              <circle id="Elipse_494" data-name="Elipse 494" cx="1.391" cy="1.391" r="1.391" fill="url(#linear-gradient)"/>
              <path id="Caminho_2267" data-name="Caminho 2267" d="M484.676,252.968a1.391,1.391,0,1,1,0-1.968A1.392,1.392,0,0,1,484.676,252.968Z" transform="translate(-475.882 -244.174)" fill="url(#linear-gradient)"/>
              <circle id="Elipse_495" data-name="Elipse 495" cx="1.391" cy="1.391" r="1.391" transform="translate(12.838 12.838)" fill="url(#linear-gradient)"/>
              <path id="Caminho_2268" data-name="Caminho 2268" d="M503.043,271.335a1.391,1.391,0,1,1,0-1.968A1.392,1.392,0,0,1,503.043,271.335Z" transform="translate(-481.411 -249.703)" fill="url(#linear-gradient)"/>
              <circle id="Elipse_496" data-name="Elipse 496" cx="1.391" cy="1.391" r="1.391" transform="translate(25.676 25.676)" fill="url(#linear-gradient)"/>
            </g>
            <g id="Grupo_910" data-name="Grupo 910" transform="translate(19.257 32.095)">
              <circle id="Elipse_497" data-name="Elipse 497" cx="1.391" cy="1.391" r="1.391" fill="url(#linear-gradient)"/>
              <circle id="Elipse_498" data-name="Elipse 498" cx="1.391" cy="1.391" r="1.391" transform="translate(6.419 6.419)" fill="url(#linear-gradient)"/>
              <path id="Caminho_2269" data-name="Caminho 2269" d="M484.676,271.335a1.391,1.391,0,1,1,0-1.968A1.392,1.392,0,0,1,484.676,271.335Z" transform="translate(-469.463 -256.122)" fill="url(#linear-gradient)"/>
              <circle id="Elipse_499" data-name="Elipse 499" cx="1.391" cy="1.391" r="1.391" transform="translate(19.257 19.257)" fill="url(#linear-gradient)"/>
              <path id="Caminho_2270" data-name="Caminho 2270" d="M503.043,289.7a1.391,1.391,0,1,1,0-1.968A1.392,1.392,0,0,1,503.043,289.7Z" transform="translate(-474.993 -261.651)" fill="url(#linear-gradient)"/>
            </g>
            <g id="Grupo_911" data-name="Grupo 911" transform="translate(12.838 38.513)">
              <circle id="Elipse_500" data-name="Elipse 500" cx="1.391" cy="1.391" r="1.391" fill="url(#linear-gradient)"/>
              <path id="Caminho_2271" data-name="Caminho 2271" d="M466.309,271.335a1.391,1.391,0,1,1,0-1.968A1.392,1.392,0,0,1,466.309,271.335Z" transform="translate(-457.515 -262.541)" fill="url(#linear-gradient)"/>
              <circle id="Elipse_501" data-name="Elipse 501" cx="1.391" cy="1.391" r="1.391" transform="translate(12.838 12.838)" fill="url(#linear-gradient)"/>
              <path id="Caminho_2272" data-name="Caminho 2272" d="M484.676,289.7a1.391,1.391,0,1,1,0-1.968A1.392,1.392,0,0,1,484.676,289.7Z" transform="translate(-463.045 -268.07)" fill="url(#linear-gradient)"/>
              <circle id="Elipse_502" data-name="Elipse 502" cx="1.391" cy="1.391" r="1.391" transform="translate(25.676 25.676)" fill="url(#linear-gradient)"/>
            </g>
            <g id="Grupo_912" data-name="Grupo 912" transform="translate(6.419 44.932)">
              <path id="Caminho_2273" data-name="Caminho 2273" d="M447.943,271.335a1.391,1.391,0,1,1,0-1.968A1.392,1.392,0,0,1,447.943,271.335Z" transform="translate(-445.567 -268.96)" fill="url(#linear-gradient)"/>
              <circle id="Elipse_503" data-name="Elipse 503" cx="1.391" cy="1.391" r="1.391" transform="translate(6.419 6.419)" fill="url(#linear-gradient)"/>
              <path id="Caminho_2274" data-name="Caminho 2274" d="M466.309,289.7a1.391,1.391,0,1,1,0-1.968A1.392,1.392,0,0,1,466.309,289.7Z" transform="translate(-451.096 -274.489)" fill="url(#linear-gradient)"/>
              <circle id="Elipse_504" data-name="Elipse 504" cx="1.391" cy="1.391" r="1.391" transform="translate(19.257 19.257)" fill="url(#linear-gradient)"/>
              <path id="Caminho_2275" data-name="Caminho 2275" d="M484.676,308.069a1.392,1.392,0,1,1,0-1.968A1.392,1.392,0,0,1,484.676,308.069Z" transform="translate(-456.626 -280.018)" fill="url(#linear-gradient)"/>
            </g>
            <g id="Grupo_913" data-name="Grupo 913" transform="translate(0 51.351)">
              <path id="Caminho_2276" data-name="Caminho 2276" d="M438.759,280.518a1.391,1.391,0,1,1,0-1.968A1.39,1.39,0,0,1,438.759,280.518Z" transform="translate(-436.384 -278.143)" fill="url(#linear-gradient)"/>
              <path id="Caminho_2277" data-name="Caminho 2277" d="M447.943,289.7a1.391,1.391,0,1,1,0-1.968A1.392,1.392,0,0,1,447.943,289.7Z" transform="translate(-439.149 -280.908)" fill="url(#linear-gradient)"/>
              <circle id="Elipse_505" data-name="Elipse 505" cx="1.391" cy="1.391" r="1.391" transform="translate(12.838 12.838)" fill="url(#linear-gradient)"/>
              <circle id="Elipse_506" data-name="Elipse 506" cx="1.391" cy="1.391" r="1.391" transform="translate(19.257 19.257)" fill="url(#linear-gradient)"/>
              <circle id="Elipse_507" data-name="Elipse 507" cx="1.391" cy="1.391" r="1.391" transform="translate(25.676 25.676)" fill="url(#linear-gradient)"/>
            </g>
          </g>
          <path id="Caminho_2278" data-name="Caminho 2278" d="M406.827,6.576h0a7.956,7.956,0,0,1,0-11.253l41.5-41.5a7.958,7.958,0,0,1,11.253,0h0a7.958,7.958,0,0,1,0,11.253l-41.5,41.5A7.958,7.958,0,0,1,406.827,6.576Z" transform="translate(4.8 118.018)" fill="url(#linear-gradient)" style="mix-blend-mode: screen;isolation: isolate"/>
          <path id="Caminho_2279" data-name="Caminho 2279" d="M666.863,107.377h0a7.956,7.956,0,0,1,0-11.253l41.5-41.5a7.958,7.958,0,0,1,11.253,0h0a7.958,7.958,0,0,1,0,11.253l-41.5,41.5A7.956,7.956,0,0,1,666.863,107.377Z" transform="translate(-73.479 87.673)" fill="url(#linear-gradient)"/>
          <path id="Caminho_2280" data-name="Caminho 2280" d="M113.269,218.689h0a7.956,7.956,0,0,1,0-11.253l41.5-41.5a7.956,7.956,0,0,1,11.253,0h0a7.956,7.956,0,0,1,0,11.253l-41.5,41.5A7.958,7.958,0,0,1,113.269,218.689Z" transform="translate(93.17 54.165)" fill="url(#linear-gradient)"/>
          <path id="Caminho_2281" data-name="Caminho 2281" d="M344.555,315.847h0a7.958,7.958,0,0,1,0-11.253l41.5-41.5a7.956,7.956,0,0,1,11.253,0h0a7.956,7.956,0,0,1,0,11.253l-41.5,41.5A7.958,7.958,0,0,1,344.555,315.847Z" transform="translate(23.546 24.917)" fill="url(#linear-gradient)"/>
          <path id="Caminho_2283" data-name="Caminho 2283" d="M500.651,389.412h0a7.958,7.958,0,0,1,0-11.253l41.5-41.5a7.958,7.958,0,0,1,11.253,0h0a7.956,7.956,0,0,1,0,11.253l-41.5,41.5A7.956,7.956,0,0,1,500.651,389.412Z" transform="translate(-23.444 2.772)" fill="url(#linear-gradient)"/>
          <path id="Caminho_2284" data-name="Caminho 2284" d="M14.259,390.445h0a7.956,7.956,0,0,1,0-11.253l65.119-65.119a7.956,7.956,0,0,1,11.253,0h0a7.956,7.956,0,0,1,0,11.253L25.512,390.445A7.956,7.956,0,0,1,14.259,390.445Z" transform="translate(122.976 9.571)" fill="url(#linear-gradient)"/>
        </g>
      </g>
    </g>
  </g>
</svg>
