<svg xmlns="http://www.w3.org/2000/svg" xmlns:xlink="http://www.w3.org/1999/xlink" width="322" height="182" viewBox="0 0 322 182">
  <defs>
    <linearGradient id="linear-gradient" x1="0.905" y1="0.103" x2="0.162" y2="0.781" gradientUnits="objectBoundingBox">
      <stop offset="0" stop-color="#8140a9"/>
      <stop offset="1" stop-color="#cc79ff"/>
    </linearGradient>
    <linearGradient id="linear-gradient-7" x1="0.095" y1="0.897" x2="0.838" y2="0.219" xlink:href="#linear-gradient"/>
    <clipPath id="clip-Prancheta_1">
      <rect width="322" height="182"/>
    </clipPath>
  </defs>
  <g id="Prancheta_1" data-name="Prancheta – 1" clip-path="url(#clip-Prancheta_1)">
    <g id="Grupo_855" data-name="Grupo 855" transform="translate(11 -11)">
      <path id="Caminho_2229" data-name="Caminho 2229" d="M412.784,1.461h0a7.956,7.956,0,0,0-11.253,0L347.174,55.818a7.956,7.956,0,0,1-11.253,0h0a7.956,7.956,0,0,1,0-11.253l26.747-26.747a7.958,7.958,0,0,0,0-11.253h0a7.956,7.956,0,0,0-11.253,0L339.43,18.55a7.956,7.956,0,0,1-11.253,0h0a7.958,7.958,0,0,1,0-11.253l23.7-23.7a7.958,7.958,0,0,0,0-11.253h0a7.956,7.956,0,0,0-11.253,0L224.047,88.923a7.958,7.958,0,0,0,0,11.253h0a7.956,7.956,0,0,0,11.253,0L250.52,84.955a7.958,7.958,0,0,1,11.253,0h0a7.956,7.956,0,0,1,0,11.253l-50.855,50.855a7.956,7.956,0,0,0,0,11.253h0a7.956,7.956,0,0,0,11.253,0l39.376-39.376a7.956,7.956,0,0,1,11.253,0h0a7.956,7.956,0,0,1,0,11.253l-9.625,9.625a7.958,7.958,0,0,0,0,11.253h0a7.958,7.958,0,0,0,11.253,0L412.784,12.714A7.958,7.958,0,0,0,412.784,1.461Z" transform="translate(-53.792 -103.975)" fill="url(#linear-gradient)"/>
      <path id="Caminho_2231" data-name="Caminho 2231" d="M275.788,239.3h0a7.956,7.956,0,0,1,0-11.253l17.109-17.11a7.958,7.958,0,0,1,11.253,0h0a7.956,7.956,0,0,1,0,11.253L287.041,239.3A7.958,7.958,0,0,1,275.788,239.3Z" transform="translate(-9.32 -168.796)" fill="url(#linear-gradient)"/>
      <path id="Caminho_2280" data-name="Caminho 2280" d="M113.269,218.689h0a7.956,7.956,0,0,1,0-11.253l41.5-41.5a7.956,7.956,0,0,1,11.253,0h0a7.956,7.956,0,0,1,0,11.253l-41.5,41.5A7.958,7.958,0,0,1,113.269,218.689Z" transform="translate(5.604 -198.25)" fill="url(#linear-gradient)"/>
      <path id="Caminho_2283" data-name="Caminho 2283" d="M500.651,389.412h0a7.958,7.958,0,0,1,0-11.253l41.5-41.5a7.958,7.958,0,0,1,11.253,0h0a7.956,7.956,0,0,1,0,11.253l-41.5,41.5A7.956,7.956,0,0,1,500.651,389.412Z" transform="translate(-201.011 -235.644)" fill="url(#linear-gradient)"/>
      <path id="Caminho_2243" data-name="Caminho 2243" d="M466.7,142.968h0a7.958,7.958,0,0,1,0-11.253L500.274,98.14a7.956,7.956,0,0,1,11.253,0h0a7.956,7.956,0,0,1,0,11.253l-33.575,33.575A7.956,7.956,0,0,1,466.7,142.968Z" transform="translate(-203.79 -106.842)" fill="url(#linear-gradient)"/>
      <path id="Caminho_2230" data-name="Caminho 2230" d="M767.784,238.847h0a7.958,7.958,0,0,0-11.253,0l-67.1,67.1a7.958,7.958,0,0,1-11.253,0h0a7.958,7.958,0,0,1,0-11.253L717.669,255.2a7.958,7.958,0,0,0,0-11.253h0a7.958,7.958,0,0,0-11.253,0l-14.762,14.762a7.956,7.956,0,0,1-11.253,0h0a7.958,7.958,0,0,1,0-11.253l26.473-26.472a7.958,7.958,0,0,0,0-11.253h0a7.958,7.958,0,0,0-11.253,0L579.047,326.31a7.958,7.958,0,0,0,0,11.253h0a7.958,7.958,0,0,0,11.253,0l15.221-15.221a7.956,7.956,0,0,1,11.253,0h0a7.956,7.956,0,0,1,0,11.253l-50.855,50.855a7.956,7.956,0,0,0,0,11.253h0a7.956,7.956,0,0,0,11.253,0l39.376-39.376a7.956,7.956,0,0,1,11.253,0h0a7.956,7.956,0,0,1,0,11.253l-9.625,9.625a7.958,7.958,0,0,0,0,11.253h0a7.956,7.956,0,0,0,11.253,0L767.784,250.1A7.958,7.958,0,0,0,767.784,238.847Z" transform="translate(-277.658 -304.436)" fill="url(#linear-gradient)"/>
    </g>
    <g id="Grupo_856" data-name="Grupo 856" transform="translate(-138.458 59.044)">
      <path id="Caminho_2229-2" data-name="Caminho 2229" d="M210.918,129.2h0a7.956,7.956,0,0,0,11.253,0l54.357-54.357a7.956,7.956,0,0,1,11.253,0h0a7.956,7.956,0,0,1,0,11.253l-26.747,26.747a7.958,7.958,0,0,0,0,11.253h0a7.956,7.956,0,0,0,11.253,0l11.986-11.985a7.956,7.956,0,0,1,11.253,0h0a7.958,7.958,0,0,1,0,11.253l-23.7,23.7a7.958,7.958,0,0,0,0,11.253h0a7.956,7.956,0,0,0,11.253,0L399.654,41.742a7.958,7.958,0,0,0,0-11.253h0a7.956,7.956,0,0,0-11.253,0L373.181,45.71a7.958,7.958,0,0,1-11.253,0h0a7.956,7.956,0,0,1,0-11.253L412.783-16.4a7.956,7.956,0,0,0,0-11.253h0a7.956,7.956,0,0,0-11.253,0L362.155,11.725a7.956,7.956,0,0,1-11.253,0h0a7.956,7.956,0,0,1,0-11.253l9.625-9.625a7.958,7.958,0,0,0,0-11.253h0a7.958,7.958,0,0,0-11.253,0L210.918,117.951A7.958,7.958,0,0,0,210.918,129.2Z" transform="translate(-77.454 129.409)" fill="url(#linear-gradient-7)"/>
      <path id="Caminho_2231-2" data-name="Caminho 2231" d="M304.15,210.933h0a7.956,7.956,0,0,1,0,11.253L287.041,239.3a7.958,7.958,0,0,1-11.253,0h0a7.956,7.956,0,0,1,0-11.253l17.109-17.11A7.958,7.958,0,0,1,304.15,210.933Z" transform="translate(-78.163 -125.334)" fill="url(#linear-gradient-7)"/>
      <path id="Caminho_2280-2" data-name="Caminho 2280" d="M166.023,165.935h0a7.956,7.956,0,0,1,0,11.253l-41.5,41.5a7.956,7.956,0,0,1-11.253,0h0a7.956,7.956,0,0,1,0-11.253l41.5-41.5A7.958,7.958,0,0,1,166.023,165.935Z" transform="translate(207.559 -30.274)" fill="url(#linear-gradient-7)"/>
      <path id="Caminho_2243-2" data-name="Caminho 2243" d="M511.527,98.14h0a7.958,7.958,0,0,1,0,11.253l-33.575,33.575a7.956,7.956,0,0,1-11.253,0h0a7.956,7.956,0,0,1,0-11.253L500.275,98.14A7.956,7.956,0,0,1,511.527,98.14Z" transform="translate(-281.981 21.833)" fill="url(#linear-gradient-7)"/>
      <path id="Caminho_2230-2" data-name="Caminho 2230" d="M565.918,366.59h0a7.958,7.958,0,0,0,11.253,0l67.1-67.1a7.958,7.958,0,0,1,11.253,0h0a7.958,7.958,0,0,1,0,11.253l-39.488,39.487a7.958,7.958,0,0,0,0,11.253h0a7.958,7.958,0,0,0,11.253,0l14.762-14.761a7.956,7.956,0,0,1,11.253,0h0a7.958,7.958,0,0,1,0,11.253L626.827,384.45a7.958,7.958,0,0,0,0,11.253h0a7.958,7.958,0,0,0,11.253,0L754.654,279.128a7.958,7.958,0,0,0,0-11.253h0a7.958,7.958,0,0,0-11.253,0L728.181,283.1a7.956,7.956,0,0,1-11.253,0h0a7.956,7.956,0,0,1,0-11.253l50.855-50.855a7.956,7.956,0,0,0,0-11.253h0a7.956,7.956,0,0,0-11.253,0l-39.376,39.376a7.956,7.956,0,0,1-11.253,0h0a7.956,7.956,0,0,1,0-11.253l9.625-9.625a7.958,7.958,0,0,0,0-11.253h0a7.956,7.956,0,0,0-11.253,0L565.918,355.338A7.958,7.958,0,0,0,565.918,366.59Z" transform="translate(-563.588 -144.903)" fill="url(#linear-gradient-7)"/>
    </g>
  </g>
</svg>
