<svg xmlns="http://www.w3.org/2000/svg" xmlns:xlink="http://www.w3.org/1999/xlink" width="322" height="182" viewBox="0 0 322 182">
  <defs>
    <linearGradient id="linear-gradient" x1="0.905" y1="0.103" x2="0.162" y2="0.781" gradientUnits="objectBoundingBox">
      <stop offset="0" stop-color="#8140a9"/>
      <stop offset="1" stop-color="#cc79ff"/>
    </linearGradient>
    <linearGradient id="linear-gradient-12" x1="0.095" y1="0.897" x2="0.838" y2="0.219" xlink:href="#linear-gradient"/>
    <linearGradient id="linear-gradient-21" x1="0.905" y1="0.103" x2="0.162" y2="0.781" gradientUnits="objectBoundingBox">
      <stop offset="0" stop-color="#8140a9"/>
      <stop offset="1" stop-color="#241b03" stop-opacity="0.353"/>
    </linearGradient>
    <clipPath id="clip-Prancheta_1">
      <rect width="322" height="182"/>
    </clipPath>
  </defs>
  <g id="Prancheta_1" data-name="Prancheta – 1" clip-path="url(#clip-Prancheta_1)">
    <g id="Grupo_857" data-name="Grupo 857" transform="translate(-38.364 -35.195)" opacity="0.2">
      <path id="Caminho_2229" data-name="Caminho 2229" d="M362.488-6.283h0a6,6,0,0,0-8.481,0L313.039,34.685a6,6,0,0,1-8.481,0h0a6,6,0,0,1,0-8.481L324.717,6.044a6,6,0,0,0,0-8.481h0a6,6,0,0,0-8.481,0L307.2,6.6a6,6,0,0,1-8.481,0h0a6,6,0,0,1,0-8.481l17.86-17.859a6,6,0,0,0,0-8.481h0a6,6,0,0,0-8.481,0L220.239,59.636a6,6,0,0,0,0,8.481h0a6,6,0,0,0,8.481,0l11.472-11.472a6,6,0,0,1,8.481,0h0a6,6,0,0,1,0,8.481l-38.329,38.329a6,6,0,0,0,0,8.481h0a6,6,0,0,0,8.481,0L248.5,82.259a6,6,0,0,1,8.481,0h0a6,6,0,0,1,0,8.481l-7.254,7.254a6,6,0,0,0,0,8.481h0a6,6,0,0,0,8.481,0L362.488,2.2A6,6,0,0,0,362.488-6.283Z" transform="translate(-179.756 29.981)" fill="url(#linear-gradient)"/>
      <path id="Caminho_2231" data-name="Caminho 2231" d="M275.214,231.736h0a6,6,0,0,1,0-8.481l12.9-12.9a6,6,0,0,1,8.481,0h0a6,6,0,0,1,0,8.481l-12.9,12.9A6,6,0,0,1,275.214,231.736Z" transform="translate(-162.216 -77.64)" fill="url(#linear-gradient)"/>
      <path id="Caminho_2280" data-name="Caminho 2280" d="M112.7,205.121h0a6,6,0,0,1,0-8.481l31.279-31.279a6,6,0,0,1,8.481,0h0a6,6,0,0,1,0,8.481l-31.279,31.279A6,6,0,0,1,112.7,205.121Z" transform="translate(-110.939 -88.755)" fill="url(#linear-gradient)"/>
      <path id="Caminho_2243" data-name="Caminho 2243" d="M466.125,131.352h0a6,6,0,0,1,0-8.481l25.305-25.305a6,6,0,0,1,8.481,0h0a6,6,0,0,1,0,8.481l-25.305,25.305A6,6,0,0,1,466.125,131.352Z" transform="translate(-355.81 -3.163)" fill="url(#linear-gradient)"/>
      <path id="Caminho_2230" data-name="Caminho 2230" d="M717.488,231.1h0a6,6,0,0,0-8.481,0l-50.57,50.571a6,6,0,0,1-8.482,0h0a6,6,0,0,1,0-8.482l29.762-29.761a6,6,0,0,0,0-8.481h0a6,6,0,0,0-8.481,0L660.11,246.075a6,6,0,0,1-8.481,0h0a6,6,0,0,1,0-8.481l19.952-19.952a6,6,0,0,0,0-8.481h0a6,6,0,0,0-8.481,0l-87.861,87.861a6,6,0,0,0,0,8.481h0a6,6,0,0,0,8.481,0l11.472-11.472a6,6,0,0,1,8.481,0h0a6,6,0,0,1,0,8.481l-38.329,38.329a6,6,0,0,0,0,8.481h0a6,6,0,0,0,8.481,0L603.5,319.646a6,6,0,0,1,8.481,0h0a6,6,0,0,1,0,8.481l-7.254,7.254a6,6,0,0,0,0,8.481h0a6,6,0,0,0,8.481,0L717.488,239.584A6,6,0,0,0,717.488,231.1Z" transform="translate(-435.922 -179.575)" fill="url(#linear-gradient)"/>
    </g>
    <g id="Grupo_855" data-name="Grupo 855" transform="translate(11 -11)">
      <path id="Caminho_2229-2" data-name="Caminho 2229" d="M412.784,1.461h0a7.956,7.956,0,0,0-11.253,0L347.174,55.818a7.956,7.956,0,0,1-11.253,0h0a7.956,7.956,0,0,1,0-11.253l26.747-26.747a7.958,7.958,0,0,0,0-11.253h0a7.956,7.956,0,0,0-11.253,0L339.43,18.55a7.956,7.956,0,0,1-11.253,0h0a7.958,7.958,0,0,1,0-11.253l23.7-23.7a7.958,7.958,0,0,0,0-11.253h0a7.956,7.956,0,0,0-11.253,0L224.047,88.923a7.958,7.958,0,0,0,0,11.253h0a7.956,7.956,0,0,0,11.253,0L250.52,84.955a7.958,7.958,0,0,1,11.253,0h0a7.956,7.956,0,0,1,0,11.253l-50.855,50.855a7.956,7.956,0,0,0,0,11.253h0a7.956,7.956,0,0,0,11.253,0l39.376-39.376a7.956,7.956,0,0,1,11.253,0h0a7.956,7.956,0,0,1,0,11.253l-9.625,9.625a7.958,7.958,0,0,0,0,11.253h0a7.958,7.958,0,0,0,11.253,0L412.784,12.714A7.958,7.958,0,0,0,412.784,1.461Z" transform="translate(-53.792 -103.975)" fill="url(#linear-gradient)"/>
      <path id="Caminho_2231-2" data-name="Caminho 2231" d="M275.788,239.3h0a7.956,7.956,0,0,1,0-11.253l17.109-17.11a7.958,7.958,0,0,1,11.253,0h0a7.956,7.956,0,0,1,0,11.253L287.041,239.3A7.958,7.958,0,0,1,275.788,239.3Z" transform="translate(-9.32 -168.796)" fill="url(#linear-gradient)"/>
      <path id="Caminho_2280-2" data-name="Caminho 2280" d="M113.269,218.689h0a7.956,7.956,0,0,1,0-11.253l41.5-41.5a7.956,7.956,0,0,1,11.253,0h0a7.956,7.956,0,0,1,0,11.253l-41.5,41.5A7.958,7.958,0,0,1,113.269,218.689Z" transform="translate(5.604 -198.25)" fill="url(#linear-gradient)"/>
      <path id="Caminho_2283" data-name="Caminho 2283" d="M500.651,389.412h0a7.958,7.958,0,0,1,0-11.253l41.5-41.5a7.958,7.958,0,0,1,11.253,0h0a7.956,7.956,0,0,1,0,11.253l-41.5,41.5A7.956,7.956,0,0,1,500.651,389.412Z" transform="translate(-201.011 -235.644)" fill="url(#linear-gradient)"/>
      <path id="Caminho_2243-2" data-name="Caminho 2243" d="M466.7,142.968h0a7.958,7.958,0,0,1,0-11.253L500.274,98.14a7.956,7.956,0,0,1,11.253,0h0a7.956,7.956,0,0,1,0,11.253l-33.575,33.575A7.956,7.956,0,0,1,466.7,142.968Z" transform="translate(-203.79 -106.842)" fill="url(#linear-gradient)"/>
      <path id="Caminho_2230-2" data-name="Caminho 2230" d="M767.784,238.847h0a7.958,7.958,0,0,0-11.253,0l-67.1,67.1a7.958,7.958,0,0,1-11.253,0h0a7.958,7.958,0,0,1,0-11.253L717.669,255.2a7.958,7.958,0,0,0,0-11.253h0a7.958,7.958,0,0,0-11.253,0l-14.762,14.762a7.956,7.956,0,0,1-11.253,0h0a7.958,7.958,0,0,1,0-11.253l26.473-26.472a7.958,7.958,0,0,0,0-11.253h0a7.958,7.958,0,0,0-11.253,0L579.047,326.31a7.958,7.958,0,0,0,0,11.253h0a7.958,7.958,0,0,0,11.253,0l15.221-15.221a7.956,7.956,0,0,1,11.253,0h0a7.956,7.956,0,0,1,0,11.253l-50.855,50.855a7.956,7.956,0,0,0,0,11.253h0a7.956,7.956,0,0,0,11.253,0l39.376-39.376a7.956,7.956,0,0,1,11.253,0h0a7.956,7.956,0,0,1,0,11.253l-9.625,9.625a7.958,7.958,0,0,0,0,11.253h0a7.956,7.956,0,0,0,11.253,0L767.784,250.1A7.958,7.958,0,0,0,767.784,238.847Z" transform="translate(-277.658 -304.436)" fill="url(#linear-gradient)"/>
    </g>
    <g id="Grupo_856" data-name="Grupo 856" transform="translate(-138.458 59.044)">
      <path id="Caminho_2231-3" data-name="Caminho 2231" d="M304.15,210.933h0a7.956,7.956,0,0,1,0,11.253L287.041,239.3a7.958,7.958,0,0,1-11.253,0h0a7.956,7.956,0,0,1,0-11.253l17.109-17.11A7.958,7.958,0,0,1,304.15,210.933Z" transform="translate(-78.163 -125.334)" fill="url(#linear-gradient-12)"/>
      <path id="Caminho_2280-3" data-name="Caminho 2280" d="M166.023,165.935h0a7.956,7.956,0,0,1,0,11.253l-41.5,41.5a7.956,7.956,0,0,1-11.253,0h0a7.956,7.956,0,0,1,0-11.253l41.5-41.5A7.958,7.958,0,0,1,166.023,165.935Z" transform="translate(207.559 -30.274)" fill="url(#linear-gradient-12)"/>
      <path id="Caminho_2243-3" data-name="Caminho 2243" d="M511.527,98.14h0a7.958,7.958,0,0,1,0,11.253l-33.575,33.575a7.956,7.956,0,0,1-11.253,0h0a7.956,7.956,0,0,1,0-11.253L500.275,98.14A7.956,7.956,0,0,1,511.527,98.14Z" transform="translate(-281.981 21.833)" fill="url(#linear-gradient-12)"/>
      <path id="Caminho_2230-3" data-name="Caminho 2230" d="M565.918,366.59h0a7.958,7.958,0,0,0,11.253,0l67.1-67.1a7.958,7.958,0,0,1,11.253,0h0a7.958,7.958,0,0,1,0,11.253l-39.488,39.487a7.958,7.958,0,0,0,0,11.253h0a7.958,7.958,0,0,0,11.253,0l14.762-14.761a7.956,7.956,0,0,1,11.253,0h0a7.958,7.958,0,0,1,0,11.253L626.827,384.45a7.958,7.958,0,0,0,0,11.253h0a7.958,7.958,0,0,0,11.253,0L754.654,279.128a7.958,7.958,0,0,0,0-11.253h0a7.958,7.958,0,0,0-11.253,0L728.181,283.1a7.956,7.956,0,0,1-11.253,0h0a7.956,7.956,0,0,1,0-11.253l50.855-50.855a7.956,7.956,0,0,0,0-11.253h0a7.956,7.956,0,0,0-11.253,0l-39.376,39.376a7.956,7.956,0,0,1-11.253,0h0a7.956,7.956,0,0,1,0-11.253l9.625-9.625a7.958,7.958,0,0,0,0-11.253h0a7.956,7.956,0,0,0-11.253,0L565.918,355.338A7.958,7.958,0,0,0,565.918,366.59Z" transform="translate(-563.588 -144.903)" fill="url(#linear-gradient-12)"/>
    </g>
    <g id="Grupo_858" data-name="Grupo 858" transform="translate(95.039 50.726)" opacity="0.2">
      <path id="Caminho_2229-3" data-name="Caminho 2229" d="M210.344,89.995h0a6,6,0,0,0,8.481,0l40.968-40.968a6,6,0,0,1,8.481,0h0a6,6,0,0,1,0,8.481L248.115,77.667a6,6,0,0,0,0,8.481h0a6,6,0,0,0,8.481,0l9.034-9.033a6,6,0,0,1,8.481,0h0a6,6,0,0,1,0,8.481l-17.86,17.859a6,6,0,0,0,0,8.481h0a6,6,0,0,0,8.481,0l87.861-87.861a6,6,0,0,0,0-8.481h0a6,6,0,0,0-8.481,0L332.64,27.066a6,6,0,0,1-8.481,0h0a6,6,0,0,1,0-8.481l38.329-38.329a6,6,0,0,0,0-8.481h0a6,6,0,0,0-8.481,0L324.33,1.452a6,6,0,0,1-8.481,0h0a6,6,0,0,1,0-8.481l7.254-7.254a6,6,0,0,0,0-8.481h0a6,6,0,0,0-8.481,0L210.344,81.514A6,6,0,0,0,210.344,89.995Z" transform="translate(-109.753 104.919)" fill="url(#linear-gradient-12)"/>
      <path id="Caminho_2231-4" data-name="Caminho 2231" d="M296.59,210.359h0a6,6,0,0,1,0,8.481l-12.9,12.9a6,6,0,0,1-8.481,0h0a6,6,0,0,1,0-8.481l12.9-12.9A6,6,0,0,1,296.59,210.359Z" transform="translate(-126.266 -145.844)" fill="url(#linear-gradient-12)"/>
      <path id="Caminho_2280-4" data-name="Caminho 2280" d="M152.455,165.361h0a6,6,0,0,1,0,8.481l-31.279,31.279a6,6,0,0,1-8.481,0h0a6,6,0,0,1,0-8.481l31.279-31.279A6,6,0,0,1,152.455,165.361Z" transform="translate(129.11 -63.115)" fill="url(#linear-gradient-12)"/>
      <path id="Caminho_2283-2" data-name="Caminho 2283" d="M539.838,336.085h0a6,6,0,0,1,0,8.481l-31.279,31.279a6,6,0,0,1-8.481,0h0a6,6,0,0,1,0-8.481l31.279-31.279A6,6,0,0,1,539.838,336.085Z" transform="translate(-394.515 -334.328)" fill="url(#linear-gradient-12)"/>
      <path id="Caminho_2243-4" data-name="Caminho 2243" d="M499.912,97.566h0a6,6,0,0,1,0,8.481l-25.305,25.305a6,6,0,0,1-8.481,0h0a6,6,0,0,1,0-8.481l25.305-25.305A6,6,0,0,1,499.912,97.566Z" transform="translate(-326.905 -7.143)" fill="url(#linear-gradient-12)"/>
    </g>
    <g id="Grupo_859" data-name="Grupo 859" transform="translate(-23.364 -0.195)" opacity="0.001">
      <path id="Caminho_2229-4" data-name="Caminho 2229" d="M362.488-6.283h0a6,6,0,0,0-8.481,0L313.039,34.685a6,6,0,0,1-8.481,0h0a6,6,0,0,1,0-8.481L324.717,6.044a6,6,0,0,0,0-8.481h0a6,6,0,0,0-8.481,0L307.2,6.6a6,6,0,0,1-8.481,0h0a6,6,0,0,1,0-8.481l17.86-17.859a6,6,0,0,0,0-8.481h0a6,6,0,0,0-8.481,0L220.239,59.636a6,6,0,0,0,0,8.481h0a6,6,0,0,0,8.481,0l11.472-11.472a6,6,0,0,1,8.481,0h0a6,6,0,0,1,0,8.481l-38.329,38.329a6,6,0,0,0,0,8.481h0a6,6,0,0,0,8.481,0L248.5,82.259a6,6,0,0,1,8.481,0h0a6,6,0,0,1,0,8.481l-7.254,7.254a6,6,0,0,0,0,8.481h0a6,6,0,0,0,8.481,0L362.488,2.2A6,6,0,0,0,362.488-6.283Z" transform="translate(-179.756 29.981)" opacity="0.004" fill="url(#linear-gradient-21)"/>
      <path id="Caminho_2231-5" data-name="Caminho 2231" d="M275.214,231.736h0a6,6,0,0,1,0-8.481l12.9-12.9a6,6,0,0,1,8.481,0h0a6,6,0,0,1,0,8.481l-12.9,12.9A6,6,0,0,1,275.214,231.736Z" transform="translate(-162.216 -77.64)" fill="url(#linear-gradient-21)"/>
      <path id="Caminho_2280-5" data-name="Caminho 2280" d="M112.7,205.121h0a6,6,0,0,1,0-8.481l31.279-31.279a6,6,0,0,1,8.481,0h0a6,6,0,0,1,0,8.481l-31.279,31.279A6,6,0,0,1,112.7,205.121Z" transform="translate(-110.939 -88.755)" fill="url(#linear-gradient-21)"/>
      <path id="Caminho_2283-3" data-name="Caminho 2283" d="M500.077,375.845h0a6,6,0,0,1,0-8.481l31.279-31.279a6,6,0,0,1,8.481,0h0a6,6,0,0,1,0,8.481l-31.279,31.279A6,6,0,0,1,500.077,375.845Z" transform="translate(-362.078 -158.989)" fill="url(#linear-gradient-21)"/>
      <path id="Caminho_2243-5" data-name="Caminho 2243" d="M466.125,131.352h0a6,6,0,0,1,0-8.481l25.305-25.305a6,6,0,0,1,8.481,0h0a6,6,0,0,1,0,8.481l-25.305,25.305A6,6,0,0,1,466.125,131.352Z" transform="translate(-355.81 -3.163)" fill="url(#linear-gradient-21)"/>
    </g>
    <g id="Grupo_860" data-name="Grupo 860" transform="translate(95.039 50.726)" opacity="0">
      <path id="Caminho_2229-5" data-name="Caminho 2229" d="M210.344,89.995h0a6,6,0,0,0,8.481,0l40.968-40.968a6,6,0,0,1,8.481,0h0a6,6,0,0,1,0,8.481L248.115,77.667a6,6,0,0,0,0,8.481h0a6,6,0,0,0,8.481,0l9.034-9.033a6,6,0,0,1,8.481,0h0a6,6,0,0,1,0,8.481l-17.86,17.859a6,6,0,0,0,0,8.481h0a6,6,0,0,0,8.481,0l87.861-87.861a6,6,0,0,0,0-8.481h0a6,6,0,0,0-8.481,0L332.64,27.066a6,6,0,0,1-8.481,0h0a6,6,0,0,1,0-8.481l38.329-38.329a6,6,0,0,0,0-8.481h0a6,6,0,0,0-8.481,0L324.33,1.452a6,6,0,0,1-8.481,0h0a6,6,0,0,1,0-8.481l7.254-7.254a6,6,0,0,0,0-8.481h0a6,6,0,0,0-8.481,0L210.344,81.514A6,6,0,0,0,210.344,89.995Z" transform="translate(-109.753 104.919)" fill="url(#linear-gradient-12)"/>
      <path id="Caminho_2231-6" data-name="Caminho 2231" d="M296.59,210.359h0a6,6,0,0,1,0,8.481l-12.9,12.9a6,6,0,0,1-8.481,0h0a6,6,0,0,1,0-8.481l12.9-12.9A6,6,0,0,1,296.59,210.359Z" transform="translate(-126.266 -145.844)" fill="url(#linear-gradient-12)"/>
      <path id="Caminho_2280-6" data-name="Caminho 2280" d="M152.455,165.361h0a6,6,0,0,1,0,8.481l-31.279,31.279a6,6,0,0,1-8.481,0h0a6,6,0,0,1,0-8.481l31.279-31.279A6,6,0,0,1,152.455,165.361Z" transform="translate(129.11 -63.115)" fill="url(#linear-gradient-12)"/>
      <path id="Caminho_2283-4" data-name="Caminho 2283" d="M539.838,336.085h0a6,6,0,0,1,0,8.481l-31.279,31.279a6,6,0,0,1-8.481,0h0a6,6,0,0,1,0-8.481l31.279-31.279A6,6,0,0,1,539.838,336.085Z" transform="translate(-394.515 -334.328)" fill="url(#linear-gradient-12)"/>
      <path id="Caminho_2243-6" data-name="Caminho 2243" d="M499.912,97.566h0a6,6,0,0,1,0,8.481l-25.305,25.305a6,6,0,0,1-8.481,0h0a6,6,0,0,1,0-8.481l25.305-25.305A6,6,0,0,1,499.912,97.566Z" transform="translate(-326.905 -7.143)" fill="url(#linear-gradient-12)"/>
      <path id="Caminho_2230-4" data-name="Caminho 2230" d="M565.344,327.382h0a6,6,0,0,0,8.481,0l50.57-50.571a6,6,0,0,1,8.482,0h0a6,6,0,0,1,0,8.482l-29.762,29.761a6,6,0,0,0,0,8.481h0a6,6,0,0,0,8.481,0l11.126-11.126a6,6,0,0,1,8.481,0h0a6,6,0,0,1,0,8.481l-19.952,19.952a6,6,0,0,0,0,8.481h0a6,6,0,0,0,8.481,0l87.861-87.861a6,6,0,0,0,0-8.481h0a6,6,0,0,0-8.481,0L687.64,264.453a6,6,0,0,1-8.481,0h0a6,6,0,0,1,0-8.481l38.329-38.329a6,6,0,0,0,0-8.481h0a6,6,0,0,0-8.481,0L679.33,238.839a6,6,0,0,1-8.481,0h0a6,6,0,0,1,0-8.481L678.1,223.1a6,6,0,0,0,0-8.481h0a6,6,0,0,0-8.481,0L565.344,318.9A6,6,0,0,0,565.344,327.382Z" transform="translate(-677.587 -3.298)" fill="url(#linear-gradient-12)"/>
    </g>
  </g>
</svg>
