<svg xmlns="http://www.w3.org/2000/svg" width="451.369" height="78.78" viewBox="0 0 451.369 78.78">
  <path id="Caminho_2164" data-name="Caminho 2164" d="M28.28-47.47c5.858,0,7.777,3.03,7.272,10.4-.1,2.121,1.515,4.242,5.151,4.242,4.343,0,6.565-2.525,6.565-6.06,0-6.464-6.666-12.625-18.483-12.625C16.16-51.51,3.03-41.915,3.03-24.745,3.03-11.11,11.918,1.01,27.775,1.01c11.11,0,17.17-6.06,19.695-8.282v-5.05A29.492,29.492,0,0,1,31.815-8.08c-9.191,0-16.867-6.161-16.867-20.3C14.948-40.1,19.695-47.47,28.28-47.47ZM53.631-25.25c-.3,14.544,10,26.26,24.745,26.26,14.544,0,25.452-11.716,25.755-26.26.2-14.544-10.2-26.26-24.846-26.26S53.833-39.794,53.631-25.25Zm13.13,0c0-15.15,4.242-22.22,12.12-22.22S91-40.4,91-25.25,86.759-3.03,78.881-3.03,66.761-10.1,66.761-25.25Zm60.7-52.52h-.909l-17.776,4.545V-70.7c5.05,1.01,6.565,2.525,6.565,7.575V-10.6c0,5.555-1.515,7.07-7.575,8.08V0h27.27V-2.525c-6.06-1.01-7.575-2.525-7.575-8.08Zm30.3,0h-.909l-17.776,4.545V-70.7c5.05,1.01,6.565,2.525,6.565,7.575V-10.6c0,5.555-1.515,7.07-7.575,8.08V0h27.27V-2.525c-6.06-1.01-7.575-2.525-7.575-8.08Zm49.995,39.895c.2-8.585-5.555-13.635-14.645-13.635-15.15,0-25.149,13.837-22.22,20.2,1.616,3.434,13.837-1.111,9.6-5.05-2.727-2.525-2.525-10.1,6.565-10.1,6.06,0,8.787,4.04,8.585,12.12l-.2,9.595L182-22.422c-8.08,1.414-13.13,5.05-13.13,11.312,0,6.868,5.151,12.12,11.11,12.12,6.06,0,9.292-2.626,14.948-8.08h.2c0,4.04,1.515,8.08,7.575,8.08,4.545,0,7.575-2.02,13.13-6.06V-7.07c-5.555,1.01-8.787,1.515-8.585-6.565ZM195.132-10.3c-3.434,2.424-5.454,3.535-8.888,3.535-2.727,0-4.848-1.919-5.353-5.151-.5-3.636.909-6.363,4.545-7.171l9.9-2.323Zm49.49-37.168c5.858,0,7.777,3.03,7.272,10.4-.1,2.121,1.515,4.242,5.151,4.242,4.343,0,6.565-2.525,6.565-6.06,0-6.464-6.666-12.625-18.483-12.625-12.625,0-25.755,9.595-25.755,26.765,0,13.635,8.888,25.755,24.745,25.755,11.11,0,17.17-6.06,19.7-8.282v-5.05A29.492,29.492,0,0,1,248.157-8.08c-9.191,0-16.867-6.161-16.867-20.3C231.29-40.1,236.037-47.47,244.622-47.47Zm42.42,1.515h13.635V-50.5H287.042V-65.65h-3.03l-9.09,14.14-5.555,1.515v4.04h5.555V-11.11c0,8.585,5.05,12.12,12.12,12.12A26.863,26.863,0,0,0,303.2-5.05V-7.07a45.827,45.827,0,0,1-9.09,1.313c-3.737,0-7.07-.707-7.07-6.262Zm40.4-5.555h-.909l-17.776,4.545v2.525c5.05,1.01,6.565,2.525,6.565,7.575V-10.6c0,5.555-1.515,7.07-7.575,8.08V0h27.27V-2.525c-6.06-1.01-7.575-2.525-7.575-8.08ZM313.706-67.973a7.673,7.673,0,0,0,7.676,7.676,7.673,7.673,0,0,0,7.676-7.676,7.759,7.759,0,0,0-7.676-7.777A7.759,7.759,0,0,0,313.706-67.973ZM338.653-25.25c-.3,14.544,10,26.26,24.745,26.26,14.544,0,25.452-11.716,25.755-26.26.2-14.544-10.2-26.26-24.846-26.26S338.855-39.794,338.653-25.25Zm13.13,0c0-15.15,4.242-22.22,12.12-22.22s12.12,7.07,12.12,22.22S371.781-3.03,363.9-3.03,351.783-10.1,351.783-25.25ZM394.809,0h27.27V-2.525c-6.06-1.01-7.575-2.525-7.575-8.08V-37.37c5.151-4.141,8.585-6.06,13.332-6.06,4.141,0,6.868,2.525,6.868,7.575V-10.6c0,5.555-.5,6.565-5.555,8.08V0H454.4V-2.525c-6.06-1.01-7.575-2.525-7.575-8.08V-36.36c0-11.11-6.363-15.15-13.13-15.15-7.373,0-14.14,4.444-18.988,10.6h-.2l.3-10.6H414l-18.18,4.545v2.525c5.05,1.01,6.565,2.525,6.565,7.575V-10.6c0,5.555-1.515,7.07-7.575,8.08Z" transform="translate(-3.03 77.77)" fill="#24231b"/>
</svg>
