<svg xmlns="http://www.w3.org/2000/svg" width="639.067" height="304.31" viewBox="0 0 639.067 304.31">
  <g id="Grupo_851" data-name="Grupo 851" transform="translate(-222.29 -828.12)">
    <path id="Caminho_2165" data-name="Caminho 2165" d="M40.04-67.21c8.294,0,11.011,4.29,10.3,14.729-.143,3,2.145,6.006,7.293,6.006,6.149,0,9.295-3.575,9.295-8.58,0-9.152-9.438-17.875-26.169-17.875C22.88-72.93,4.29-59.345,4.29-35.035,4.29-15.73,16.874,1.43,39.325,1.43c15.73,0,24.31-8.58,27.885-11.726v-7.15A41.755,41.755,0,0,1,45.045-11.44c-13.013,0-23.881-8.723-23.881-28.743C21.164-56.771,27.885-67.21,40.04-67.21ZM75.933-35.75C75.5-15.158,90.09,1.43,110.968,1.43c20.592,0,36.036-16.588,36.465-37.18.286-20.592-14.443-37.18-35.178-37.18S76.219-56.342,75.933-35.75Zm18.59,0c0-21.45,6.006-31.46,17.16-31.46s17.16,10.01,17.16,31.46-6.006,31.46-17.16,31.46S94.523-14.3,94.523-35.75Zm85.943-74.36h-1.287l-25.168,6.435v3.575c7.15,1.43,9.295,3.575,9.295,10.725v74.36c0,7.865-2.145,10.01-10.725,11.44V0h38.61V-3.575c-8.58-1.43-10.725-3.575-10.725-11.44Zm42.9,0h-1.287l-25.168,6.435v3.575c7.15,1.43,9.295,3.575,9.295,10.725v74.36c0,7.865-2.145,10.01-10.725,11.44V0h38.61V-3.575c-8.58-1.43-10.725-3.575-10.725-11.44Zm70.785,56.485c.286-12.155-7.865-19.305-20.735-19.305-21.45,0-35.607,19.591-31.46,28.6,2.288,4.862,19.591-1.573,13.585-7.15-3.861-3.575-3.575-14.3,9.295-14.3,8.58,0,12.441,5.72,12.155,17.16l-.286,13.585-19.019,3.289c-11.44,2-18.59,7.15-18.59,16.016,0,9.724,7.293,17.16,15.73,17.16,8.58,0,13.156-3.718,21.164-11.44h.286c0,5.72,2.145,11.44,10.725,11.44,6.435,0,10.725-2.86,18.59-8.58v-2.86c-7.865,1.43-12.441,2.145-12.155-9.3ZM276.276-14.586c-4.862,3.432-7.722,5-12.584,5-3.861,0-6.864-2.717-7.579-7.293-.715-5.148,1.287-9.009,6.435-10.153l14.014-3.289Zm70.07-52.624c8.294,0,11.011,4.29,10.3,14.729-.143,3,2.145,6.006,7.293,6.006,6.149,0,9.295-3.575,9.295-8.58,0-9.152-9.438-17.875-26.169-17.875-17.875,0-36.465,13.585-36.465,37.9C310.6-15.73,323.18,1.43,345.631,1.43c15.73,0,24.31-8.58,27.885-11.726v-7.15a41.755,41.755,0,0,1-22.165,6.006c-13.013,0-23.881-8.723-23.881-28.743C327.47-56.771,334.191-67.21,346.346-67.21Zm60.06,2.145h19.3V-71.5h-19.3V-92.95h-4.29l-12.87,20.02-7.865,2.145v5.72h7.865V-15.73c0,12.155,7.15,17.16,17.16,17.16,7.15,0,15.73-2.86,22.88-8.58v-2.86c-4.862,1-8.866,1.859-12.87,1.859-5.291,0-10.01-1-10.01-8.866Zm57.2-7.865h-1.287L437.151-66.5v3.575c7.15,1.43,9.295,3.575,9.295,10.725v37.18c0,7.865-2.145,10.01-10.725,11.44V0h38.61V-3.575c-8.58-1.43-10.725-3.575-10.725-11.44ZM444.158-96.239a10.863,10.863,0,0,0,10.868,10.868,10.863,10.863,0,0,0,10.868-10.868,10.986,10.986,0,0,0-10.868-11.011A10.986,10.986,0,0,0,444.158-96.239ZM479.479-35.75c-.429,20.592,14.157,37.18,35.035,37.18,20.592,0,36.036-16.588,36.465-37.18.286-20.592-14.443-37.18-35.178-37.18S479.765-56.342,479.479-35.75Zm18.59,0c0-21.45,6.006-31.46,17.16-31.46s17.16,10.01,17.16,31.46-6.006,31.46-17.16,31.46S498.069-14.3,498.069-35.75ZM558.987,0H597.6V-3.575c-8.58-1.43-10.725-3.575-10.725-11.44v-37.9c7.293-5.863,12.155-8.58,18.876-8.58,5.863,0,9.724,3.575,9.724,10.725v35.75c0,7.865-.715,9.295-7.865,11.44V0h35.75V-3.575c-8.58-1.43-10.725-3.575-10.725-11.44V-51.48c0-15.73-9.009-21.45-18.59-21.45-10.439,0-20.02,6.292-26.884,15.015h-.286L587.3-72.93h-1.144L560.417-66.5v3.575c7.15,1.43,9.295,3.575,9.295,10.725v37.18c0,7.865-2.145,10.01-10.725,11.44Z" transform="translate(218 1131)" fill="#24231b"/>
    <path id="Caminho_2164" data-name="Caminho 2164" d="M80.64-135.36c16.7,0,22.176,8.64,20.736,29.664-.288,6.048,4.32,12.1,14.688,12.1,12.384,0,18.72-7.2,18.72-17.28,0-18.432-19.008-36-52.7-36-36,0-73.44,27.36-73.44,76.32C8.64-31.68,33.984,2.88,79.2,2.88c31.68,0,48.96-17.28,56.16-23.616v-14.4c-13.536,7.776-26.784,12.1-44.64,12.1-26.208,0-48.1-17.568-48.1-57.888C42.624-114.336,56.16-135.36,80.64-135.36Z" transform="translate(471 975)" fill="#24231b"/>
  </g>
</svg>
