<svg id="Symbol_39_1" data-name="Symbol 39 – 1" xmlns="http://www.w3.org/2000/svg" width="59.423" height="59.423" viewBox="0 0 59.423 59.423">
  <path id="Caminho_177" data-name="Caminho 177" d="M216.616,505.314a3.308,3.308,0,0,1,3.3-3.3h13.205a3.3,3.3,0,0,1,0,6.6H219.917A3.119,3.119,0,0,1,216.616,505.314Zm0-13.205a3.119,3.119,0,0,1,3.3-3.3h6.6a3.3,3.3,0,0,1,0,6.6h-6.6A3.308,3.308,0,0,1,216.616,492.109Zm0-13.205a3.308,3.308,0,0,1,3.3-3.3h13.205a3.3,3.3,0,0,1,0,6.6H219.917A3.119,3.119,0,0,1,216.616,478.9Zm-6.6,33.013a16.506,16.506,0,1,1-33.013,0,16.73,16.73,0,0,1,6.6-13.205V478.9a9.9,9.9,0,1,1,19.808,0v19.808A16.73,16.73,0,0,1,210.013,511.917ZM196.808,478.9a3.119,3.119,0,0,0-3.3-3.3,3.308,3.308,0,0,0-3.3,3.3v21.458a3.467,3.467,0,0,1-1.651,2.971,9.851,9.851,0,0,0-4.952,8.583,9.9,9.9,0,1,0,19.808,0,9.851,9.851,0,0,0-4.952-8.583,3.467,3.467,0,0,1-1.651-2.971Z" transform="translate(-177 -469)" fill="#fff"/>
</svg>
