<svg xmlns="http://www.w3.org/2000/svg" xmlns:xlink="http://www.w3.org/1999/xlink" width="59.423" height="59.423" viewBox="0 0 59.423 59.423">
  <defs>
    <clipPath id="clip-path">
      <rect width="59.423" height="59.423" fill="none"/>
    </clipPath>
  </defs>
  <g id="Repetição_de_grade_1" data-name="Repetição de grade 1" clip-path="url(#clip-path)">
    <g id="Symbol_34_1" data-name="Symbol 34 – 1">
      <path id="Caminho_132" data-name="Caminho 132" d="M50.84,8.583l2.971-2.971c1.321-1.321,2.311-.99,2.311.99V18.157a1.559,1.559,0,0,1-1.651,1.651H42.917c-1.981,0-2.311-.99-.99-2.311l4.292-3.962a23.2,23.2,0,0,0-16.506-6.6,23.776,23.776,0,0,0-16.506,6.6A22.433,22.433,0,0,0,6.6,29.712a3.119,3.119,0,0,1-3.3,3.3,3.119,3.119,0,0,1-3.3-3.3A29.881,29.881,0,0,1,50.84,8.583ZM8.583,50.84,5.612,53.811c-1.321,1.321-2.311.99-2.311-.99V41.266a1.559,1.559,0,0,1,1.651-1.651H16.506c1.981,0,2.311.99.99,2.311l-4.292,4.292a23.2,23.2,0,0,0,16.506,6.6,23.776,23.776,0,0,0,16.506-6.6,23.2,23.2,0,0,0,6.6-16.506,3.3,3.3,0,0,1,6.6,0A29.881,29.881,0,0,1,8.583,50.84Z" fill="#fff" fill-rule="evenodd"/>
    </g>
  </g>
</svg>
