<svg id="Symbol_41_1" data-name="Symbol 41 – 1" xmlns="http://www.w3.org/2000/svg" width="56.122" height="56.122" viewBox="0 0 56.122 56.122">
  <path id="Caminho_175" data-name="Caminho 175" d="M88.061,526.122a4.952,4.952,0,1,1,4.952-4.952A5.077,5.077,0,0,1,88.061,526.122Zm0-23.109a4.952,4.952,0,1,1,4.952-4.952A5.077,5.077,0,0,1,88.061,503.013Zm0-23.109a4.952,4.952,0,1,1,4.952-4.952A5.077,5.077,0,0,1,88.061,479.9Zm23.109,46.218a4.952,4.952,0,1,1,4.952-4.952A5.077,5.077,0,0,1,111.17,526.122Zm0-23.109a4.952,4.952,0,1,1,4.952-4.952A5.077,5.077,0,0,1,111.17,503.013Zm0-23.109a4.952,4.952,0,1,1,4.952-4.952A5.077,5.077,0,0,1,111.17,479.9ZM64.952,526.122A4.952,4.952,0,1,1,69.9,521.17,5.077,5.077,0,0,1,64.952,526.122Zm0-23.109a4.952,4.952,0,1,1,4.952-4.952A5.077,5.077,0,0,1,64.952,503.013Zm0-23.109a4.952,4.952,0,1,1,4.952-4.952A5.077,5.077,0,0,1,64.952,479.9Z" transform="translate(-60 -470)" fill="#fff" fill-rule="evenodd"/>
</svg>
