<svg id="camera-lens" xmlns="http://www.w3.org/2000/svg" width="63" height="63" viewBox="0 0 63 63">
  <g id="Grupo_855" data-name="Grupo 855">
    <g id="Grupo_854" data-name="Grupo 854">
      <path id="Caminho_2166" data-name="Caminho 2166" d="M357.8,171.579a1.314,1.314,0,0,0-1.251-.913H339.188a1.312,1.312,0,0,0-1.133,1.974l14.432,24.768a1.311,1.311,0,0,0,1.123.651h.01a1.313,1.313,0,0,0,1.123-.633,31.342,31.342,0,0,0,3.061-25.848Z" transform="translate(-296.301 -149.666)" fill="#7c37a6"/>
      <path id="Caminho_2167" data-name="Caminho 2167" d="M227.339,22.822a1.317,1.317,0,0,0,1.138.658h28.749a1.312,1.312,0,0,0,1.151-1.941,31.467,31.467,0,0,0-20.9-15.688,1.31,1.31,0,0,0-1.418.623l-8.716,15.035A1.314,1.314,0,0,0,227.339,22.822Z" transform="translate(-199.213 -5.104)" fill="#7c37a6"/>
      <path id="Caminho_2168" data-name="Caminho 2168" d="M255.743,288.017a1.31,1.31,0,0,0-1.133-.652h0a1.313,1.313,0,0,0-1.133.654l-14.481,24.975a1.314,1.314,0,0,0,1.1,1.971l.295.017c.179.013.361.024.546.024a31.541,31.541,0,0,0,23.392-10.454,1.315,1.315,0,0,0,.156-1.538Z" transform="translate(-209.432 -252.006)" fill="#7c37a6"/>
      <path id="Caminho_2169" data-name="Caminho 2169" d="M21.279,143.949a1.309,1.309,0,0,0,0-1.311L6.942,117.667a1.315,1.315,0,0,0-1.118-.659,1.19,1.19,0,0,0-1.138.624A31.347,31.347,0,0,0,1.5,143.691a1.313,1.313,0,0,0,1.251.913h17.4A1.31,1.31,0,0,0,21.279,143.949Z" transform="translate(0 -102.604)" fill="#7c37a6"/>
      <path id="Caminho_2170" data-name="Caminho 2170" d="M61.053,363.324a1.317,1.317,0,0,0-1.138-.658H31.165a1.312,1.312,0,0,0-1.151,1.941,31.467,31.467,0,0,0,20.9,15.689,1.336,1.336,0,0,0,.282.031,1.313,1.313,0,0,0,1.136-.654l8.716-15.035A1.314,1.314,0,0,0,61.053,363.324Z" transform="translate(-26.179 -318.041)" fill="#7c37a6"/>
      <path id="Caminho_2171" data-name="Caminho 2171" d="M73.259,26.87a1.314,1.314,0,0,0,1.136.659h0a1.312,1.312,0,0,0,1.136-.654L89.947,2.012A1.314,1.314,0,0,0,88.85.041L88.555.024C88.375.012,88.193,0,88.009,0A31.563,31.563,0,0,0,64.781,10.273a1.314,1.314,0,0,0-.169,1.539Z" transform="translate(-56.509)" fill="#7c37a6"/>
    </g>
  </g>
</svg>
