<svg xmlns="http://www.w3.org/2000/svg" width="68.245" height="62.708" viewBox="0 0 68.245 62.708">
  <path id="Exclusion_98" data-name="Exclusion 98" d="M10.585,62.208a1.753,1.753,0,0,1-1.346-.572,1.97,1.97,0,0,1-.525-1.384,2,2,0,0,1,.038-.408,1.807,1.807,0,0,1,.122-.324h-.08c.657-1.1,1.551-2.732,2.73-5.009a13.789,13.789,0,0,0,1.749-6.228v-.164a23.316,23.316,0,0,1-5.862-4.23A24.065,24.065,0,0,1,3.255,38.35,26.565,26.565,0,0,1,.816,32,27.854,27.854,0,0,1,0,25.406a19.81,19.81,0,0,1,2.645-9.933A26.042,26.042,0,0,1,9.933,7.41,37.734,37.734,0,0,1,20.762,1.993,43.307,43.307,0,0,1,34.035,0,42.636,42.636,0,0,1,47.186,1.993,36.636,36.636,0,0,1,57.893,7.41a26.457,26.457,0,0,1,7.2,8.062,19.81,19.81,0,0,1,2.645,9.933A22.886,22.886,0,0,1,65.3,36.272a25.259,25.259,0,0,1-7,8.428,33.2,33.2,0,0,1-10.585,5.417A43.828,43.828,0,0,1,34.6,52.031H32.816c-.6,0-1.176-.014-1.754-.042s-1.255-.1-1.993-.2a23.568,23.568,0,0,1-2.486,2.195c-1.28,1.035-2.8,2.132-4.516,3.26a47.677,47.677,0,0,1-5.5,3.1,20.3,20.3,0,0,1-5.417,1.792h-.08l-.164.038A1.284,1.284,0,0,1,10.585,62.208Zm23.45-57A38.6,38.6,0,0,0,22.84,6.8a32.712,32.712,0,0,0-9.2,4.315,21.372,21.372,0,0,0-6.186,6.392,14.9,14.9,0,0,0-2.242,7.9A23.05,23.05,0,0,0,7.734,35.583a17.484,17.484,0,0,0,7.9,7.9l2.852,1.463-.244,3.175-.164,1.426a27.363,27.363,0,0,1-1.548,5.173,37.382,37.382,0,0,0,4.357-3.053,20.283,20.283,0,0,0,2.73-2.486l3.339-2.767,2.847.244a26.468,26.468,0,0,0,3.419.244h1.548A37.033,37.033,0,0,0,45.8,45.31,27.576,27.576,0,0,0,54.6,40.836a21.64,21.64,0,0,0,5.82-6.843,17.958,17.958,0,0,0,2.115-8.587,14.935,14.935,0,0,0-2.237-7.9,21.925,21.925,0,0,0-6.069-6.392A30.96,30.96,0,0,0,45.188,6.8,38.172,38.172,0,0,0,34.035,5.211Z" transform="translate(0.25 0.25)" fill="#a1a1a1" stroke="#a1a1a1" stroke-width="0.5"/>
</svg>
