<svg xmlns="http://www.w3.org/2000/svg" width="58.359" height="62.949" viewBox="0 0 58.359 62.949">
  <path id="Exclusion_52" data-name="Exclusion 52" d="M53.487,61.949H3.872a3.808,3.808,0,0,1-2.726-1.11A3.718,3.718,0,0,1,0,58.076V52.268a3.257,3.257,0,0,1,1.936-2.722L3.872,48.4l14.841-8.029a16.648,16.648,0,0,1-5.663-8.6,32.372,32.372,0,0,1-1.579-8.534V13.549a9.057,9.057,0,0,1,1.507-4.837,17.278,17.278,0,0,1,3.945-4.338,21.4,21.4,0,0,1,5.554-3.155,16.848,16.848,0,0,1,12.585,0,21.038,21.038,0,0,1,5.485,3.155,16.958,16.958,0,0,1,3.872,4.338,9.207,9.207,0,0,1,1.47,4.837V23.23a35.282,35.282,0,0,1-1.4,8.749,15.848,15.848,0,0,1-5.415,8.461L53.487,48.4l1.936,1.077a3.19,3.19,0,0,1,1.936,2.8v5.808a3.718,3.718,0,0,1-1.146,2.762A3.808,3.808,0,0,1,53.487,61.949ZM28.751,4.589a13.489,13.489,0,0,0-8.782,3.225c-2.594,2.14-3.909,4.07-3.909,5.736V23.23a25.345,25.345,0,0,0,1.292,6.991,12.742,12.742,0,0,0,4.229,6.562,4.739,4.739,0,0,1,1.328,1.791,4.51,4.51,0,0,1-2.045,5.808l-14.841,8.1h0a.305.305,0,0,0-.138.036.522.522,0,0,0-.145.109,1.881,1.881,0,0,0-.608.287l-.539.357V57.36H52.77V53.273a1.843,1.843,0,0,0-.5-.357l-.572-.287a.342.342,0,0,1-.182-.073,2.136,2.136,0,0,0-.251-.142L36.855,44.454A4.889,4.889,0,0,1,35.2,42.911a4.264,4.264,0,0,1-.717-2.115,4.207,4.207,0,0,1,.324-2.224,4.466,4.466,0,0,1,1.4-1.791,11.653,11.653,0,0,0,4.014-6.562A30.041,30.041,0,0,0,41.3,23.23V13.549c0-1.664-1.266-3.594-3.763-5.736A13.146,13.146,0,0,0,28.751,4.589Z" transform="translate(0.5 0.5)" fill="#a1a1a1" stroke="#a1a1a1" stroke-width="1"/>
</svg>
