<svg xmlns="http://www.w3.org/2000/svg" width="68.15" height="60.905" viewBox="0 0 68.15 60.905">
  <g id="home" transform="translate(0.503 0.552)">
    <g id="Grupo_699" data-name="Grupo 699" transform="translate(0 0)">
      <g id="Grupo_698" data-name="Grupo 698">
        <path id="Caminho_2049" data-name="Caminho 2049" d="M66.429,51.438,34.6,28.134a1.744,1.744,0,0,0-2.061,0L.714,51.438a1.745,1.745,0,0,0,2.061,2.815L33.571,31.7l30.8,22.549a1.745,1.745,0,0,0,2.061-2.815Z" transform="translate(0.001 -27.798)" fill="#a1a1a1" stroke="#a1a1a1" stroke-width="1"/>
      </g>
    </g>
    <g id="Grupo_701" data-name="Grupo 701" transform="translate(7.403 26.85)">
      <g id="Grupo_700" data-name="Grupo 700">
        <path id="Caminho_2050" data-name="Caminho 2050" d="M107.045,232.543a1.745,1.745,0,0,0-1.745,1.745v27.769H91.344V246.9a8.723,8.723,0,1,0-17.447,0v15.158H59.941V234.288a1.745,1.745,0,0,0-3.489,0V263.8a1.745,1.745,0,0,0,1.745,1.745H75.642a1.744,1.744,0,0,0,1.738-1.609,1.311,1.311,0,0,0,.007-.136V246.9a5.234,5.234,0,0,1,10.469,0v16.9a1.276,1.276,0,0,0,.007.134,1.744,1.744,0,0,0,1.738,1.61h17.446a1.745,1.745,0,0,0,1.745-1.745V234.288A1.745,1.745,0,0,0,107.045,232.543Z" transform="translate(-56.452 -232.543)" fill="#a1a1a1" stroke="#a1a1a1" stroke-width="1"/>
      </g>
    </g>
  </g>
</svg>
