<svg xmlns="http://www.w3.org/2000/svg" width="62.671" height="62.494" viewBox="0 0 62.671 62.494">
  <path id="Magnifier_-_simple-line-icons" data-name="Magnifier - simple-line-icons" d="M58.779,60.494a1.868,1.868,0,0,1-1.358-.592L39.108,41.47a23.992,23.992,0,0,1-7.089,4.254A23.075,23.075,0,0,1,23.63,47.26a23.09,23.09,0,0,1-9.215-1.86A24.388,24.388,0,0,1,6.882,40.35,23.412,23.412,0,0,1,0,23.63,23.412,23.412,0,0,1,6.882,6.913a24.31,24.31,0,0,1,7.534-5.051,23.587,23.587,0,0,1,18.372,0,24.272,24.272,0,0,1,7.531,5.051,23.7,23.7,0,0,1,5.082,7.5,23.126,23.126,0,0,1,1.86,9.215,22.867,22.867,0,0,1-1.476,8.183,24.661,24.661,0,0,1-4.017,6.94L60.139,57.245a1.926,1.926,0,0,1,0,2.657A1.87,1.87,0,0,1,58.779,60.494ZM23.63,3.722a19.527,19.527,0,0,0-7.768,1.565A19.934,19.934,0,0,0,9.541,9.57a20.613,20.613,0,0,0-4.254,6.321A19.279,19.279,0,0,0,3.722,23.63a19.279,19.279,0,0,0,1.565,7.739A20.579,20.579,0,0,0,9.541,37.69a19.86,19.86,0,0,0,6.321,4.283,19.915,19.915,0,0,0,15.478,0,19.892,19.892,0,0,0,6.321-4.283,20.658,20.658,0,0,0,4.254-6.321A19.314,19.314,0,0,0,43.48,23.63a19.314,19.314,0,0,0-1.565-7.739A20.692,20.692,0,0,0,37.661,9.57,19.965,19.965,0,0,0,31.34,5.287,19.383,19.383,0,0,0,23.63,3.722Z" transform="translate(1 1)" fill="#a1a1a1" stroke="#a1a1a1" stroke-width="2"/>
</svg>
