<svg xmlns="http://www.w3.org/2000/svg" width="449.854" height="78.78" viewBox="0 0 449.854 78.78">
  <path id="Caminho_2166" data-name="Caminho 2166" d="M28.28-48.48c7.777,0,8.989,4.04,8.484,11.413-.1,2.121,2.02,3.232,4.242,3.232,2.626,0,5.454-1.515,5.454-5.05,0-6.464-6.666-12.625-17.675-12.625C16.16-51.51,4.04-41.915,4.04-24.745,4.04-11.11,12.726,1.01,27.775,1.01c9.595,0,15.655-5.05,18.685-7.575V-9.6A31.632,31.632,0,0,1,30.3-5.555c-10.807,0-18.382-7.878-18.382-22.826C11.918-40.1,18.18-48.48,28.28-48.48ZM54.641-25.25c-.3,14.544,9.6,26.26,23.735,26.26s24.442-11.716,24.745-26.26c.2-14.544-9.7-26.26-23.836-26.26S54.843-39.794,54.641-25.25Zm9.09,0c0-15.15,5.757-23.23,15.15-23.23s15.15,8.08,15.15,23.23S88.274-2.02,78.881-2.02,63.731-10.1,63.731-25.25Zm61.711-52.52h-1.01l-15.15,4.545v2.02c7.07,1.01,8.08,2.525,8.08,7.575V-10.1c0,5.555-1.01,7.07-9.09,8.08V0h26.26V-2.02c-8.08-1.01-9.09-2.525-9.09-8.08Zm30.3,0h-1.01l-15.15,4.545v2.02c7.07,1.01,8.08,2.525,8.08,7.575V-10.1c0,5.555-1.01,7.07-9.09,8.08V0h26.26V-2.02c-8.08-1.01-9.09-2.525-9.09-8.08Zm49.995,39.895c.2-8.585-4.545-13.635-12.625-13.635-15.15,0-24.139,12.827-21.21,19.19,1.616,3.434,11.817-1.111,7.575-5.05-2.727-2.525-1.515-10.1,7.575-10.1,6.06,0,10.807,4.04,10.6,12.12l-.2,10.6L183.012-22.22c-8.08,1.414-13.13,4.848-13.13,11.11,0,6.868,5.151,12.12,11.11,12.12,6.06,0,10.3-3.03,15.958-8.08h.2c0,4.04,1.01,8.08,6.06,8.08,3.03,0,6.06-2.02,12.12-6.06V-6.565c-6.565,1.01-10.3,1.515-10.1-6.565ZM197.152-9.6c-5.656,3.939-8.585,5.05-13.13,5.05-2.727,0-5.555-1.818-6.161-6.262-.606-4.141,1.616-7.171,6.666-8.383l12.827-3.03Zm47.47-38.885c7.777,0,8.989,4.04,8.484,11.413-.1,2.121,2.02,3.232,4.242,3.232,2.626,0,5.454-1.515,5.454-5.05,0-6.464-6.666-12.625-17.675-12.625-12.625,0-24.745,9.595-24.745,26.765,0,13.635,8.686,25.755,23.735,25.755,9.595,0,15.655-5.05,18.685-7.575V-9.6a31.632,31.632,0,0,1-16.16,4.04c-10.807,0-18.382-7.878-18.382-22.826C228.26-40.1,234.522-48.48,244.622-48.48Zm40.4,1.515h15.15V-50.5h-15.15V-65.65H283l-6.06,14.14-7.07,1.515v3.03h7.07V-11.11c0,8.585,3.03,12.12,10.1,12.12A26.863,26.863,0,0,0,303.2-5.05V-6.565A44.407,44.407,0,0,1,293.1-5.05c-4.04,0-8.08-.5-8.08-7.07Zm40.4-4.545h-1.01l-15.15,4.545v2.02c7.07,1.01,8.08,2.525,8.08,7.575V-10.1c0,5.555-1.01,7.07-9.09,8.08V0h26.26V-2.02c-8.08-1.01-9.09-2.525-9.09-8.08Zm-10.1-16.16a6.078,6.078,0,0,0,6.06,6.06,6.078,6.078,0,0,0,6.06-6.06,6.078,6.078,0,0,0-6.06-6.06A6.078,6.078,0,0,0,315.322-67.67Zm24.341,42.42c-.3,14.544,9.6,26.26,23.735,26.26s24.442-11.716,24.745-26.26c.2-14.544-9.7-26.26-23.836-26.26S339.865-39.794,339.663-25.25Zm9.09,0c0-15.15,5.757-23.23,15.15-23.23s15.15,8.08,15.15,23.23S373.3-2.02,363.9-2.02,348.753-10.1,348.753-25.25ZM395.314,0h26.26V-2.02c-8.08-1.01-9.09-2.525-9.09-8.08V-37.875c6.969-5.858,11.514-7.575,16.665-7.575s7.575,3.535,7.575,9.09V-10.1c0,5.555,0,6.565-7.07,8.08V0h24.24V-2.02c-8.08-1.01-9.09-2.525-9.09-8.08V-36.36c0-11.11-5.858-15.15-12.625-15.15-7.373,0-13.635,4.747-19.493,10.6h-.2l.3-10.6h-.808l-15.655,4.545v2.02c7.07,1.01,8.08,2.525,8.08,7.575V-10.1c0,5.555-1.01,7.07-9.09,8.08Z" transform="translate(-4.04 77.77)" fill="#24231b"/>
</svg>
