<svg xmlns="http://www.w3.org/2000/svg" xmlns:xlink="http://www.w3.org/1999/xlink" width="52.595" height="39.995" viewBox="0 0 52.595 39.995">
  <defs>
    <linearGradient id="linear-gradient" y1="0.5" x2="1" y2="0.5" gradientUnits="objectBoundingBox">
      <stop offset="0" stop-opacity="0.102"/>
      <stop offset="1" stop-opacity="0.2"/>
    </linearGradient>
  </defs>
  <g id="Grupo_851" data-name="Grupo 851" transform="translate(-690.295 -1627.871)">
    <path id="Shape" d="M49.233,39.762H3.282A3.292,3.292,0,0,1,0,36.479V3.282A3.292,3.292,0,0,1,3.282,0H49.233a3.292,3.292,0,0,1,3.282,3.282v33.2A3.262,3.262,0,0,1,49.233,39.762Z" transform="translate(690.303 1628.059)" fill="#e3e3e3"/>
    <path id="Shape-2" data-name="Shape" d="M.516,31.228l19.646-15.8.141-.844L.047,0,0,30.525Z" transform="translate(696.352 1636.592)" fill="#231f20" opacity="0.1"/>
    <path id="Shape-3" data-name="Shape" d="M3.282,38.683A3.262,3.262,0,0,1,0,35.4V2.157C0,.328,1.454,0,3.282,0S6.565.375,6.565,2.157V38.683Z" transform="translate(690.303 1629.137)" fill="#d54b3d"/>
    <path id="Shape-4" data-name="Shape" d="M6.564,38.684H3.282A3.248,3.248,0,0,1,0,35.4V2.158C0,.256,1.659,0,3.282,0c1.7,0,3.282.261,3.282,2.158V38.684ZM3.282.469C.94.469.469,1.115.469,2.158V35.4a2.817,2.817,0,0,0,2.812,2.814H6.1V2.158C6.1,1.281,5.755.469,3.282.469Z" transform="translate(690.303 1629.137)" fill="#d72b27"/>
    <path id="Shape-5" data-name="Shape" d="M3.282,38.683H0V2.063C0,.234,1.454,0,3.282,0S6.564.234,6.564,2.063V35.448A3.252,3.252,0,0,1,3.282,38.683Z" transform="translate(736.254 1629.137)" fill="#d54b3d"/>
    <path id="Shape-6" data-name="Shape" d="M3.282,38.729H0V2.063C0,.159,1.621,0,3.282,0S6.564.159,6.564,2.063V35.448A3.247,3.247,0,0,1,3.282,38.729Zm0-38.26C1.153.469.469.857.469,2.063v36.2H3.282A2.818,2.818,0,0,0,6.1,35.448V2.063C6.1.886,5.36.469,3.282.469Z" transform="translate(736.254 1629.137)" fill="#d72b27"/>
    <path id="Shape-7" data-name="Shape" d="M34.892,36.078,0,.915l1.835.746,24.288,17.49L52.241,0V32.843a3.252,3.252,0,0,1-3.282,3.235Z" transform="translate(690.578 1631.742)" fill="url(#linear-gradient)"/>
    <path id="Shape-8" data-name="Shape" d="M26.207,24.125,1.4,6.12a3.313,3.313,0,0,1-.8-4.6,3.4,3.4,0,0,1,4.689-.7L26.253,16.061,47.353.634a3.262,3.262,0,0,1,4.6.75,3.262,3.262,0,0,1-.75,4.6Z" transform="translate(690.308 1627.893)" fill="#d54b3d"/>
    <path id="Shape-9" data-name="Shape" d="M26.219,24.194h0L1.415,6.142A3.357,3.357,0,0,1,.571,1.548,3.384,3.384,0,0,1,3.291.187,3.242,3.242,0,0,1,5.259.8l20.959,15.24L47.32.609a3.276,3.276,0,0,1,4.593.8A3.342,3.342,0,0,1,51.164,6L26.22,24.193ZM3.336.657A2.947,2.947,0,0,0,.993,1.828a2.845,2.845,0,0,0,.7,3.939L26.219,23.584l24.711-18a2.872,2.872,0,0,0,.609-3.939,2.86,2.86,0,0,0-2.3-1.172,3.125,3.125,0,0,0-1.688.515L26.5,16.411l-.282.187-.28-.187L5.025,1.219A2.7,2.7,0,0,0,3.336.657Z" transform="translate(690.295 1627.871)" fill="#d72b27"/>
  </g>
</svg>
