<svg xmlns="http://www.w3.org/2000/svg" width="61.06" height="56.07" viewBox="0 0 61.06 56.07">
  <path id="Bubbles_-_simple-line-icons" data-name="Bubbles - simple-line-icons" d="M9.541,56.07a1.58,1.58,0,0,1-1.213-.516,1.776,1.776,0,0,1-.473-1.247,1.8,1.8,0,0,1,.034-.368A1.629,1.629,0,0,1,8,53.647H7.926c.592-.988,1.4-2.463,2.461-4.515a12.428,12.428,0,0,0,1.577-5.614v-.148a21.015,21.015,0,0,1-5.284-3.813,21.69,21.69,0,0,1-3.745-4.992,23.944,23.944,0,0,1-2.2-5.724A25.106,25.106,0,0,1,0,22.9a17.855,17.855,0,0,1,2.384-8.953A23.472,23.472,0,0,1,8.953,6.679,34.011,34.011,0,0,1,18.714,1.8,39.033,39.033,0,0,1,30.677,0,38.429,38.429,0,0,1,42.53,1.8a33.021,33.021,0,0,1,9.651,4.882,23.846,23.846,0,0,1,6.493,7.267A17.856,17.856,0,0,1,61.058,22.9a20.627,20.627,0,0,1-2.2,9.794,22.767,22.767,0,0,1-6.311,7.6,29.919,29.919,0,0,1-9.541,4.882A39.5,39.5,0,0,1,31.188,46.9H29.578c-.543,0-1.06-.012-1.581-.038s-1.131-.087-1.8-.182a21.242,21.242,0,0,1-2.24,1.978c-1.153.933-2.523,1.921-4.071,2.938a42.972,42.972,0,0,1-4.954,2.79A18.3,18.3,0,0,1,10.052,56H9.98l-.148.034A1.157,1.157,0,0,1,9.541,56.07ZM30.677,4.7a34.788,34.788,0,0,0-10.09,1.433,29.485,29.485,0,0,0-8.294,3.889A19.263,19.263,0,0,0,6.717,15.78,13.429,13.429,0,0,0,4.7,22.9a20.775,20.775,0,0,0,2.274,9.173,15.758,15.758,0,0,0,7.119,7.119l2.57,1.319-.22,2.862-.148,1.285A24.663,24.663,0,0,1,14.9,49.319a33.694,33.694,0,0,0,3.927-2.752,18.282,18.282,0,0,0,2.46-2.24l3.01-2.494,2.566.22a23.856,23.856,0,0,0,3.082.22h1.395a33.379,33.379,0,0,0,9.947-1.433,24.855,24.855,0,0,0,7.926-4.033,19.5,19.5,0,0,0,5.246-6.167,16.186,16.186,0,0,0,1.906-7.74,13.461,13.461,0,0,0-2.016-7.119,19.762,19.762,0,0,0-5.47-5.762,27.9,27.9,0,0,0-8.146-3.889A34.405,34.405,0,0,0,30.677,4.7Z" fill="#4a4a4a"/>
</svg>
