<svg xmlns="http://www.w3.org/2000/svg" width="62.06" height="56.07" viewBox="0 0 62.06 56.07">
  <path id="Bubbles_-_simple-line-icons" data-name="Bubbles - simple-line-icons" d="M9.541,55.07a1.594,1.594,0,0,1-1.213-.507,1.845,1.845,0,0,1-.44-1.586A1.582,1.582,0,0,1,8,52.691H7.926c.592-.971,1.4-2.419,2.461-4.434a12.041,12.041,0,0,0,1.577-5.514V42.6a21.008,21.008,0,0,1-5.284-3.745,21.34,21.34,0,0,1-3.745-4.9,23.263,23.263,0,0,1-2.2-5.622A24.241,24.241,0,0,1,0,22.49,17.3,17.3,0,0,1,2.384,13.7,23.2,23.2,0,0,1,8.953,6.56a34.255,34.255,0,0,1,9.761-4.8A39.687,39.687,0,0,1,30.677,0,39.071,39.071,0,0,1,42.53,1.765a33.25,33.25,0,0,1,9.651,4.8A23.566,23.566,0,0,1,58.674,13.7a17.3,17.3,0,0,1,2.384,8.794,19.961,19.961,0,0,1-2.2,9.62,22.458,22.458,0,0,1-6.311,7.461,30.12,30.12,0,0,1-9.541,4.8A40.168,40.168,0,0,1,31.188,46.06H29.578c-.543,0-1.06-.012-1.581-.037s-1.131-.086-1.8-.179a21.121,21.121,0,0,1-2.24,1.943c-1.153.916-2.523,1.887-4.071,2.885a43.194,43.194,0,0,1-4.954,2.74A18.536,18.536,0,0,1,10.052,55H9.98l-.148.033A1.177,1.177,0,0,1,9.541,55.07ZM30.677,4.613A35.376,35.376,0,0,0,20.586,6.02a29.727,29.727,0,0,0-8.294,3.82A19.076,19.076,0,0,0,6.717,15.5,13.015,13.015,0,0,0,4.7,22.49,20.112,20.112,0,0,0,6.971,31.5a15.62,15.62,0,0,0,7.119,6.992l2.57,1.3L16.44,42.6l-.148,1.262A23.9,23.9,0,0,1,14.9,48.439a33.709,33.709,0,0,0,3.927-2.7,18.161,18.161,0,0,0,2.46-2.2l3.01-2.45,2.566.216a24.282,24.282,0,0,0,3.082.216h1.395a33.941,33.941,0,0,0,9.947-1.407,25.024,25.024,0,0,0,7.926-3.961,19.251,19.251,0,0,0,5.246-6.057,15.671,15.671,0,0,0,1.906-7.6A13.046,13.046,0,0,0,54.345,15.5a19.561,19.561,0,0,0-5.47-5.659,28.126,28.126,0,0,0-8.146-3.82A34.986,34.986,0,0,0,30.677,4.613Z" transform="translate(0.5 0.5)" fill="#707070" stroke="#707070" stroke-width="1"/>
</svg>
