<svg xmlns="http://www.w3.org/2000/svg" width="65.268" height="59.177" viewBox="0 0 65.268 59.177">
  <path id="Heart_-_simple-line-icons" data-name="Heart - simple-line-icons" d="M17.2,0a12.787,12.787,0,0,1,7.017,2.269A41.276,41.276,0,0,1,30.634,7.4a35.9,35.9,0,0,1,6.36-5.136A12.906,12.906,0,0,1,43.951,0,16.3,16.3,0,0,1,50.46,1.284,17.377,17.377,0,0,1,56.013,5.2a16.821,16.821,0,0,1,3.941,5.882,17.834,17.834,0,0,1,0,13.436,17.422,17.422,0,0,1-3.941,5.942q-.06.06-3.434,3.673T45.235,42.07q-3.971,4.329-7.285,7.882l-3.314,3.553a5.568,5.568,0,0,1-1.881,1.254,5.664,5.664,0,0,1-2.12.418,5.591,5.591,0,0,1-2.15-.418,5.652,5.652,0,0,1-1.851-1.254l-3.075-3.374q-3.075-3.374-6.9-7.614t-7.255-8q-3.434-3.762-4.15-4.538a17.5,17.5,0,0,1-3.941-5.912,17.834,17.834,0,0,1,0-13.436A17.5,17.5,0,0,1,5.255,4.718,15.17,15.17,0,0,1,10.779,1.1,18.515,18.515,0,0,1,17.2,0Z" transform="translate(2 2)" fill="none" stroke="#4a4a4a" stroke-width="4"/>
</svg>
