<svg id="Grupo_781" data-name="Grupo 781" xmlns="http://www.w3.org/2000/svg" width="37.845" height="37.845" viewBox="0 0 37.845 37.845">
  <g id="Grupo_780" data-name="Grupo 780">
    <path id="Caminho_2111" data-name="Caminho 2111" d="M105.237,97a4.3,4.3,0,0,0-2.92,1.03,4.544,4.544,0,0,0-6.038.245A4.673,4.673,0,0,0,95,101.591c0,2.732,2.289,4.446,4.127,5.823a12.049,12.049,0,0,1,2.037,1.745,1.478,1.478,0,0,0,2.307,0,12.046,12.046,0,0,1,2.037-1.745c1.839-1.377,4.127-3.092,4.127-5.823a4.673,4.673,0,0,0-1.279-3.316A4.327,4.327,0,0,0,105.237,97Zm-1.5,8.048c-.479.359-.966.723-1.418,1.108-.452-.384-.939-.749-1.418-1.108-1.447-1.084-2.943-2.2-2.943-3.457A1.434,1.434,0,0,1,99.4,99.957a1.239,1.239,0,0,1,1.177.524,1.844,1.844,0,0,1,.269.715,1.457,1.457,0,0,0,1.452,1.375,1.5,1.5,0,0,0,1.5-1.387,1.936,1.936,0,0,1,.233-.648,1.233,1.233,0,0,1,1.213-.58,1.434,1.434,0,0,1,1.441,1.635C106.679,102.843,105.183,103.964,103.736,105.048Z" transform="translate(-87.978 -89.83)" fill="#7c37a6"/>
    <path id="Caminho_2112" data-name="Caminho 2112" d="M36.367,20.105a1.478,1.478,0,0,0,1.478-1.478V10.348A4.44,4.44,0,0,0,33.41,5.913H28.975V4.435A4.44,4.44,0,0,0,24.54,0H4.435A4.44,4.44,0,0,0,0,4.435V27.5a4.44,4.44,0,0,0,4.435,4.435H8.87V33.41A4.44,4.44,0,0,0,13.3,37.845H33.41a4.44,4.44,0,0,0,4.435-4.435V26.019a1.478,1.478,0,1,0-2.957,0v2.957H32.523a1.478,1.478,0,1,0,0,2.957h2.365V33.41a1.48,1.48,0,0,1-1.478,1.478H13.3a1.48,1.48,0,0,1-1.478-1.478V31.932H24.54A4.44,4.44,0,0,0,28.975,27.5V8.87H33.41a1.48,1.48,0,0,1,1.478,1.478v8.279A1.478,1.478,0,0,0,36.367,20.105ZM26.019,23.062H8.131a1.478,1.478,0,1,0,0,2.957H26.019V27.5a1.48,1.48,0,0,1-1.478,1.478H4.435A1.48,1.48,0,0,1,2.957,27.5V4.435A1.48,1.48,0,0,1,4.435,2.957H24.54a1.48,1.48,0,0,1,1.478,1.478Z" fill="#7c37a6"/>
  </g>
</svg>
