<svg id="album" xmlns="http://www.w3.org/2000/svg" width="43.029" height="43.029" viewBox="0 0 43.029 43.029">
  <g id="Grupo_781" data-name="Grupo 781">
    <g id="Grupo_780" data-name="Grupo 780">
      <path id="Caminho_2111" data-name="Caminho 2111" d="M106.64,97a4.889,4.889,0,0,0-3.32,1.171,5.166,5.166,0,0,0-6.865.279A5.313,5.313,0,0,0,95,102.22c0,3.106,2.6,5.055,4.693,6.621a13.7,13.7,0,0,1,2.316,1.984,1.681,1.681,0,0,0,2.623,0,13.7,13.7,0,0,1,2.316-1.984c2.091-1.566,4.693-3.515,4.693-6.621a5.313,5.313,0,0,0-1.455-3.77A4.92,4.92,0,0,0,106.64,97Zm-1.708,9.15c-.544.408-1.1.823-1.612,1.259-.514-.437-1.068-.852-1.612-1.259-1.645-1.232-3.346-2.507-3.346-3.93A1.631,1.631,0,0,1,100,100.362a1.409,1.409,0,0,1,1.339.6,2.1,2.1,0,0,1,.306.813,1.657,1.657,0,0,0,1.65,1.564,1.7,1.7,0,0,0,1.7-1.577,2.2,2.2,0,0,1,.265-.737,1.4,1.4,0,0,1,1.379-.66,1.631,1.631,0,0,1,1.639,1.858C108.278,103.644,106.577,104.918,104.932,106.15Z" transform="translate(-87.016 -88.848)" fill="#a1a1a1"/>
      <path id="Caminho_2112" data-name="Caminho 2112" d="M41.348,22.859a1.681,1.681,0,0,0,1.681-1.681V11.766a5.048,5.048,0,0,0-5.042-5.042H32.944V5.042A5.048,5.048,0,0,0,27.9,0H5.042A5.048,5.048,0,0,0,0,5.042V31.263a5.048,5.048,0,0,0,5.042,5.042h5.042v1.681a5.048,5.048,0,0,0,5.042,5.042H37.986a5.048,5.048,0,0,0,5.042-5.042v-8.4a1.681,1.681,0,0,0-3.362,0v3.362H36.978a1.681,1.681,0,0,0,0,3.362h2.689v1.681a1.683,1.683,0,0,1-1.681,1.681H15.127a1.683,1.683,0,0,1-1.681-1.681V36.306H27.9a5.048,5.048,0,0,0,5.042-5.042V10.085h5.042a1.683,1.683,0,0,1,1.681,1.681v9.413A1.681,1.681,0,0,0,41.348,22.859ZM29.582,26.221H9.244a1.681,1.681,0,1,0,0,3.362H29.582v1.681A1.683,1.683,0,0,1,27.9,32.944H5.042a1.683,1.683,0,0,1-1.681-1.681V5.042A1.683,1.683,0,0,1,5.042,3.362H27.9a1.683,1.683,0,0,1,1.681,1.681Z" fill="#a1a1a1"/>
    </g>
  </g>
</svg>
