<svg xmlns="http://www.w3.org/2000/svg" width="56.701" height="14.375" viewBox="0 0 56.701 14.375">
  <g id="Grupo_851" data-name="Grupo 851" transform="translate(-977.719 -73.209)">
    <path id="Path" d="M7.961,14.375H6.421a.78.78,0,0,1-.171-.029.362.362,0,0,1-.171-.086,6.977,6.977,0,0,1-4.193-2.168A6.4,6.4,0,0,1,.032,7.872,7.092,7.092,0,0,1,1.2,3.137,6.945,6.945,0,0,1,5.109.342a4.874,4.874,0,0,1,.627-.2Q6.079.057,6.421,0h1.54a.4.4,0,0,1,.171.029L8.3.114a7.116,7.116,0,0,1,3.85,1.854A6.855,6.855,0,0,1,14.236,5.7a2.252,2.252,0,0,1,.086.342,2.253,2.253,0,0,0,.086.342v1.54a.4.4,0,0,1-.029.171l-.086.171a6.914,6.914,0,0,1-1.825,3.793,7.189,7.189,0,0,1-3.651,2.082q-.228.057-.428.114T7.961,14.375Z" transform="translate(1020.013 73.209)" fill="#8644b2"/>
    <path id="Path-2" data-name="Path" d="M6.446,0h1.54a.78.78,0,0,1,.171.029.362.362,0,0,1,.171.086,6.916,6.916,0,0,1,4.193,2.2,6.509,6.509,0,0,1,1.854,4.25,7.353,7.353,0,0,1-1.226,4.706A6.9,6.9,0,0,1,9.241,14.09q-.285.057-.627.143t-.627.143H6.446a.4.4,0,0,1-.171-.029L6.1,14.261a7.408,7.408,0,0,1-3.679-1.683A7.485,7.485,0,0,1,.285,9.127q-.057-.285-.143-.57T0,7.986v-1.6a.277.277,0,0,1,.057-.143A.277.277,0,0,0,.114,6.1,7.1,7.1,0,0,1,5.647.171,1.355,1.355,0,0,0,6.018.114Q6.218.057,6.446,0Z" transform="translate(977.719 73.209)" fill="#8644b2"/>
    <path id="Path-3" data-name="Path" d="M6.4,0h1.6a.469.469,0,0,1,.143.029,1.565,1.565,0,0,1,.2.086,7.2,7.2,0,0,1,4.193,2.253,6.509,6.509,0,0,1,1.854,4.25,7.529,7.529,0,0,1-1.369,4.82,6.763,6.763,0,0,1-3.993,2.71q-.228.057-.513.114t-.513.114H6.4a.277.277,0,0,1-.143-.057.351.351,0,0,0-.2-.057,6.858,6.858,0,0,1-4.193-2.225A6.62,6.62,0,0,1,.008,7.758a7.529,7.529,0,0,1,1.369-4.82A6.763,6.763,0,0,1,5.37.228Q5.6.171,5.884.114T6.4,0Z" transform="translate(998.874 73.209)" fill="#8644b2"/>
  </g>
</svg>
