<svg xmlns="http://www.w3.org/2000/svg" width="28" height="28" viewBox="0 0 28 28">
  <g id="Grupo_853" data-name="Grupo 853" transform="translate(-483 -1181)">
    <rect id="Retângulo_254" data-name="Retângulo 254" width="22" height="22" rx="5" transform="translate(505 1203) rotate(180)" fill="#fff"/>
    <path id="Subtração_1" data-name="Subtração 1" d="M2.551,21.33l0,0A5.012,5.012,0,0,1,0,16.969V5A5.006,5.006,0,0,1,5,0H16.973a5.011,5.011,0,0,1,4.359,2.55,5,5,0,0,0-2.448-.64H6.911a5.006,5.006,0,0,0-5,5V18.88a5,5,0,0,0,.639,2.447Z" transform="translate(511 1209) rotate(180)" fill="#fff"/>
  </g>
</svg>
