<svg xmlns="http://www.w3.org/2000/svg" width="57.912" height="14.683" viewBox="0 0 57.912 14.683">
  <path id="_" data-name="" d="M51.329,14.683H49.756a.743.743,0,0,1-.174-.03.345.345,0,0,1-.175-.089,7.146,7.146,0,0,1-4.282-2.212,6.553,6.553,0,0,1-1.9-4.312,7.284,7.284,0,0,1,1.195-4.835A7.138,7.138,0,0,1,48.416.349a5.042,5.042,0,0,1,.642-.2c.31-.074.512-.116.7-.145h1.573A.417.417,0,0,1,51.5.03l.175.086a7.284,7.284,0,0,1,3.933,1.9,7.041,7.041,0,0,1,2.126,3.815,2.447,2.447,0,0,1,.089.349,2.565,2.565,0,0,0,.086.352V8.1a.368.368,0,0,1-.03.177l-.086.175a7.115,7.115,0,0,1-1.866,3.874A7.357,7.357,0,0,1,52.2,14.449c-.153.038-.3.078-.435.115s-.282.078-.437.118Zm-21.558,0h-1.63A.264.264,0,0,1,28,14.624a.379.379,0,0,0-.2-.059,7.021,7.021,0,0,1-4.282-2.271,6.781,6.781,0,0,1-1.9-4.371A7.721,7.721,0,0,1,23.013,3,6.936,6.936,0,0,1,27.091.234c.149-.039.317-.075.524-.118S28,.033,28.141,0h1.63a.507.507,0,0,1,.148.03,1.792,1.792,0,0,1,.2.086,7.4,7.4,0,0,1,4.282,2.3A6.677,6.677,0,0,1,36.3,6.757a7.726,7.726,0,0,1-1.4,4.924,6.933,6.933,0,0,1-4.078,2.768c-.136.033-.318.075-.524.115-.175.036-.36.075-.526.118Zm-21.615,0H6.583a.435.435,0,0,1-.175-.03l-.175-.089a7.6,7.6,0,0,1-3.759-1.718A7.634,7.634,0,0,1,.293,9.321C.25,9.12.2,8.93.145,8.739.079,8.515.033,8.33,0,8.156V6.527a.276.276,0,0,1,.059-.148.278.278,0,0,0,.056-.145A7.261,7.261,0,0,1,5.767.175,1.3,1.3,0,0,0,6.145.115L6.177.107,6.206.1c.118-.033.243-.067.377-.1H8.156a.765.765,0,0,1,.175.03.377.377,0,0,1,.174.086A7.088,7.088,0,0,1,12.787,2.36a6.662,6.662,0,0,1,1.9,4.341,7.537,7.537,0,0,1-1.254,4.806A7.068,7.068,0,0,1,9.439,14.39c-.169.034-.367.079-.642.145-.228.057-.438.105-.641.148Z" transform="translate(57.912 14.683) rotate(180)" fill="#707070"/>
</svg>
