<svg xmlns="http://www.w3.org/2000/svg" width="141.859" height="141.859" viewBox="0 0 141.859 141.859">
  <g id="play-button" transform="translate(3 3)">
    <path id="Caminho_2051" data-name="Caminho 2051" d="M128.342,36.838A68.532,68.532,0,0,0,108.28,13.277a2.765,2.765,0,1,0-3.288,4.446,62.978,62.978,0,0,1,18.435,21.649,61.713,61.713,0,0,1,6.9,28.558,62.4,62.4,0,1,1-62.4-62.4A2.765,2.765,0,0,0,67.93,0a67.89,67.89,0,1,0,60.412,36.838Z" transform="translate(0 0)" fill="#fff" stroke="#fff" stroke-width="6"/>
    <path id="Caminho_2052" data-name="Caminho 2052" d="M108.062,78.546a2.766,2.766,0,0,0-1.4,2.4v60.674a2.765,2.765,0,1,0,5.529,0V85.813l40.933,24.368-30.1,19.393a2.765,2.765,0,1,0,3,4.648l33.852-21.81a2.765,2.765,0,0,0-.083-4.7L110.843,78.574A2.765,2.765,0,0,0,108.062,78.546Z" transform="translate(-57.515 -42.158)" fill="#fff" stroke="#fff" stroke-width="6"/>
  </g>
</svg>
