<svg xmlns="http://www.w3.org/2000/svg" width="47.939" height="39.616" viewBox="0 0 47.939 39.616">
  <path id="Shape" d="M23.277,10.539l.1,1.714-1.732-.21A28.171,28.171,0,0,1,5.161,3.929L2.875,1.656,2.286,3.335A10.092,10.092,0,0,0,4.434,13.686c1.386,1.469,1.074,1.679-1.316.8a4.085,4.085,0,0,0-1.628-.385c-.242.245.589,3.427,1.247,4.686a11.186,11.186,0,0,0,4.745,4.476l1.7.8-2.009.035c-1.94,0-2.009.035-1.8.769.693,2.273,3.429,4.686,6.477,5.735l2.148.734-1.87,1.119A19.5,19.5,0,0,1,2.84,35.052a10.257,10.257,0,0,0-2.84.28c0,.35,4.226,2.308,6.685,3.077a29.259,29.259,0,0,0,22.723-2.588A30.41,30.41,0,0,0,40.943,22.253,36.07,36.07,0,0,0,43.3,11.762c0-1.609.1-1.818,2.044-3.742a22.835,22.835,0,0,0,2.425-2.693c.346-.664.312-.664-1.455-.07-2.944,1.049-3.36.909-1.905-.664C45.48,3.475,46.762,1.446,46.762.852c0-.1-.52.07-1.108.385a19.325,19.325,0,0,1-3.048,1.189l-1.87.594-1.7-1.154A14.1,14.1,0,0,0,36.093.327a11.834,11.834,0,0,0-6.062.14A10.012,10.012,0,0,0,23.277,10.539Z" fill="#fff"/>
</svg>
